<?xml version="1.0" encoding="UTF-8"?>
<svg version="1.1" xmlns="http://www.w3.org/2000/svg" width="1696" height="848">
<path d="M0 0 C559.68 0 1119.36 0 1696 0 C1696 279.84 1696 559.68 1696 848 C1136.32 848 576.64 848 0 848 C0 568.16 0 288.32 0 0 Z " fill="#0E212F" transform="translate(0,0)"/>
<path d="M0 0 C0.87333984 -0.01224609 1.74667969 -0.02449219 2.64648438 -0.03710938 C15.1289805 -0.06507613 27.6365042 4.30045014 36.8125 13 C45.87421352 23.07072659 49.52489469 33.40216888 49.6875 46.75 C49.70151855 47.54140381 49.71553711 48.33280762 49.72998047 49.14819336 C49.63908331 60.39263793 44.94104936 71.01902846 37.3515625 79.23828125 C25.70060131 90.37588591 12.2079643 93.76483333 -3.58203125 93.4609375 C-15.26119152 92.91545996 -26.51348838 86.92436862 -34.5 78.5 C-44.09312281 66.62389845 -47.13827143 53.09222843 -45.6875 38.1875 C-43.2371843 25.73050581 -36.58350382 15.82005543 -26.609375 8.1328125 C-17.98805956 2.39295275 -10.19396468 0.00736026 0 0 Z " fill="#F6F7F8" transform="translate(905.6875,393.8125)"/>
<path d="M0 0 C-0.90523213 4.2002771 -2.90282094 7.57966461 -5.0625 11.25 C-5.43955078 11.8996875 -5.81660156 12.549375 -6.20507812 13.21875 C-7.13234115 14.81505091 -8.06558456 16.40787529 -9 18 C-13.90751495 16.8851781 -18.33312332 14.69160581 -22.89257812 12.61523438 C-31.97393072 8.55139353 -41.58278008 5.83566927 -51.4765625 8.72265625 C-55.63452465 10.64590841 -58.76912615 12.91006461 -61 17 C-61.79991225 21.0995503 -61.50132225 24.04094873 -59.5625 27.75 C-53.53151601 33.04549813 -46.14930512 34.5410662 -38.5144043 36.36401367 C-7.96495717 43.76876096 -7.96495717 43.76876096 1 57 C5.42502645 65.10387197 6.39508013 74.33121097 4.19921875 83.25390625 C1.02347269 92.49740081 -3.64222616 99.84566803 -12.19140625 104.87890625 C-28.18195237 112.56845045 -47.08269867 113.77336474 -64 108 C-72.69464915 104.41898349 -80.76062749 100.03281042 -88 94 C-86.64737628 89.25869791 -84.66645646 85.67711421 -81.875 81.625 C-81.15054688 80.56539063 -80.42609375 79.50578125 -79.6796875 78.4140625 C-79.12539063 77.61742187 -78.57109375 76.82078125 -78 76 C-74.83090639 77.17433418 -72.67610962 78.24457029 -69.9375 80.3125 C-60.77490108 87.09886448 -50.66809813 89.18160525 -39.5625 89.25 C-38.72912109 89.270625 -37.89574219 89.29125 -37.03710938 89.3125 C-31.86142163 89.34523162 -28.56639928 88.68196558 -24 86 C-23.34 86 -22.68 86 -22 86 C-21.690625 85.195625 -21.38125 84.39125 -21.0625 83.5625 C-20 81 -20 81 -19 80 C-18.60909521 76.01277117 -18.78100817 73.48559058 -20.4375 69.8125 C-25.85260857 63.86908816 -33.95326904 62.32195244 -41.5625 60.625 C-56.29842424 57.10486593 -71.20708041 53.47545856 -80.4375 40.5 C-85.51421401 32.11849986 -86.27828413 23.03593368 -84.53515625 13.44140625 C-81.84715699 4.26403598 -75.18061551 -3.49457628 -66.90625 -8.1875 C-44.68802393 -18.82721389 -19.66059643 -13.10706429 0 0 Z " fill="#F5F7F8" transform="translate(774,376)"/>
<path d="M0 0 C0.90049072 0.02513672 1.80098145 0.05027344 2.72875977 0.07617188 C3.97133545 0.11073486 3.97133545 0.11073486 5.23901367 0.14599609 C8.11931652 0.78295627 9.20100471 1.90177545 11.06469727 4.14648438 C11.41918945 4.95214844 11.77368164 5.7578125 12.13891602 6.58789062 C14.0211067 10.81068519 16.69118873 14.33758784 19.37719727 18.08398438 C20.36002697 19.47410577 21.33702828 20.86837474 22.30688477 22.26757812 C22.72953613 22.87013428 23.1521875 23.47269043 23.58764648 24.09350586 C24.50219727 25.64648438 24.50219727 25.64648438 24.50219727 27.64648438 C25.16219727 27.64648438 25.82219727 27.64648438 26.50219727 27.64648438 C26.91139404 26.57297729 26.91139404 26.57297729 27.32885742 25.4777832 C30.99761709 16.624973 36.22043446 6.98693524 43.50219727 0.64648438 C50.04135577 -1.85677788 56.80482511 -0.69978942 63.50219727 0.64648438 C64.49219727 2.62648438 64.49219727 2.62648438 65.50219727 4.64648438 C64.45172901 6.17086451 63.40122471 7.69521981 62.35058594 9.21948242 C61.39640903 10.60724102 60.44481654 11.99677956 59.49560547 13.38793945 C56.50010358 17.77270089 53.4568841 22.11663874 50.36157227 26.43164062 C48.97085738 28.39902501 47.58023156 30.36647235 46.18969727 32.33398438 C45.15703735 33.7496167 45.15703735 33.7496167 44.10351562 35.19384766 C43.47582275 36.08958496 42.84812988 36.98532227 42.20141602 37.90820312 C41.63253662 38.70186279 41.06365723 39.49552246 40.47753906 40.31323242 C39.21495397 42.65878278 39.21495397 42.65878278 40.22729492 45.27001953 C41.73427043 48.07907729 43.39753273 50.69679138 45.18969727 53.33398438 C45.90383789 54.38714844 46.61797852 55.4403125 47.35375977 56.52539062 C50.37729111 60.91775707 53.4271003 65.29009701 56.50219727 69.64648438 C57.77388692 71.45838366 59.04473352 73.27087498 60.31469727 75.08398438 C61.15967773 76.28861328 61.15967773 76.28861328 62.02172852 77.51757812 C65.51303925 82.53806454 65.51303925 82.53806454 65.18969727 85.77148438 C64.50219727 88.64648438 64.50219727 88.64648438 63.50219727 89.64648438 C57.37462548 90.65718255 50.5802212 91.03143816 44.50219727 89.64648438 C40.78144392 86.61369775 39.42634237 82.96512117 37.50219727 78.64648438 C36.15376602 76.67570024 34.75747817 74.73678237 33.31469727 72.83398438 C31.17319825 69.93861144 29.07279953 67.05199497 27.12719727 64.02148438 C25.72073658 61.55340281 25.72073658 61.55340281 23.50219727 60.64648438 C23.27016602 61.32195312 23.03813477 61.99742187 22.79907227 62.69335938 C20.85512636 67.11993499 18.11739674 70.93389013 15.36352539 74.89282227 C13.37659031 77.76718456 11.59735399 80.43785053 10.14282227 83.62695312 C8.8314648 86.45176081 8.08598657 87.87274794 5.50219727 89.64648438 C-0.10250484 90.81605198 -6.92450375 91.06615914 -12.49780273 89.64648438 C-14.31152344 88.35839844 -14.31152344 88.35839844 -15.49780273 86.64648438 C-15.09355496 82.32135315 -12.26679866 79.00934152 -9.87280273 75.52148438 C-9.4198584 74.85205811 -8.96691406 74.18263184 -8.50024414 73.49291992 C-5.98950414 69.79267123 -3.44311893 66.11811507 -0.87280273 62.45898438 C-0.33397461 61.688125 0.20485352 60.91726563 0.76000977 60.12304688 C2.07471588 58.25415971 3.40569178 56.39670277 4.74438477 54.54492188 C5.48946289 53.4853125 6.23454102 52.42570312 7.00219727 51.33398438 C7.69313477 50.36847656 8.38407227 49.40296875 9.09594727 48.40820312 C10.70614028 45.78907347 10.70614028 45.78907347 10.43579102 43.13085938 C9.31830189 40.15712263 7.8692224 37.82681661 6.06469727 35.20898438 C5.34668945 34.16226563 4.62868164 33.11554688 3.88891602 32.03710938 C1.40674073 28.49558268 -1.10536111 24.97549396 -3.62280273 21.45898438 C-4.04464844 20.86883545 -4.46649414 20.27868652 -4.90112305 19.6706543 C-5.31330078 19.09420166 -5.72547852 18.51774902 -6.15014648 17.92382812 C-6.54830566 17.36679199 -6.94646484 16.80975586 -7.35668945 16.23583984 C-8.39794023 14.785574 -9.44930045 13.3425801 -10.50170898 11.90039062 C-11.05729492 11.11535156 -11.61288086 10.3303125 -12.18530273 9.52148438 C-12.66354492 8.85890625 -13.14178711 8.19632812 -13.63452148 7.51367188 C-14.49780273 5.64648438 -14.49780273 5.64648438 -14.20483398 3.46679688 C-12.25815117 -1.54510474 -4.59037743 0.0350928 0 0 Z " fill="#F5F7F7" transform="translate(979.497802734375,395.353515625)"/>
<path d="M0 0 C17.44331808 -1.78171035 17.44331808 -1.78171035 22.7578125 1.921875 C24.82092725 4.83958541 26.38731743 7.81079366 28 11 C29.77008137 13.77262938 31.64011602 16.47460354 33.5 19.1875 C34.36749469 20.49155755 35.23232894 21.7973912 36.09375 23.10546875 C36.7228125 24.06066406 37.351875 25.01585937 38 26 C40.5456527 22.86774037 42.96030433 19.69839323 45.25 16.375 C45.86875 15.5190625 46.4875 14.663125 47.125 13.78125 C49.07088026 11.02003337 49.07088026 11.02003337 50.5625 7.90625 C52.46371734 4.49110033 53.8649286 2.36667155 57 0 C62.96832022 -1.39385535 70.00790543 -1.304871 76 0 C76.99 0.99 76.99 0.99 78 2 C77.64675525 5.48045877 75.92508317 7.87886424 73.97265625 10.7109375 C73.34931396 11.61980713 72.72597168 12.52867676 72.08374023 13.46508789 C71.41673096 14.42535889 70.74972168 15.38562988 70.0625 16.375 C69.38968994 17.35782959 68.71687988 18.34065918 68.02368164 19.35327148 C64.99620744 23.75854432 61.94163638 28.1277047 58.7109375 32.38671875 C58.23648193 33.01852051 57.76202637 33.65032227 57.27319336 34.30126953 C56.40484339 35.44626618 55.52089165 36.57965302 54.61938477 37.69873047 C53.29747317 39.35794191 53.29747317 39.35794191 52 42 C53.10189899 45.69636336 54.93125093 48.56411332 57.17578125 51.671875 C57.79791504 52.54134766 58.42004883 53.41082031 59.06103516 54.30664062 C59.70089355 55.19544922 60.34075195 56.08425781 61 57 C62.20428508 58.71181215 63.40614191 60.42533537 64.60546875 62.140625 C65.19650391 62.98367188 65.78753906 63.82671875 66.39648438 64.6953125 C66.98751953 65.53835938 67.57855469 66.38140625 68.1875 67.25 C68.79013672 68.10851562 69.39277344 68.96703125 70.01367188 69.8515625 C71.68097146 72.2308045 73.34111409 74.61488835 75 77 C75.43538086 77.61520508 75.87076172 78.23041016 76.31933594 78.86425781 C79.01418109 82.74474036 79.01418109 82.74474036 78.875 85.25 C78 87 78 87 76 89 C69.97464997 90.61894562 63.88190375 91.53924068 58 89 C52.1445225 83.61311309 48.30557999 76.42672637 44.43847656 69.55371094 C41.57307063 63.95020627 41.57307063 63.95020627 37 60 C36.59467041 61.09924805 36.59467041 61.09924805 36.18115234 62.22070312 C35.04049471 64.90471439 33.75291976 67.07305274 32.1015625 69.46875 C31.53953125 70.28730469 30.9775 71.10585938 30.3984375 71.94921875 C29.81320312 72.79097656 29.22796875 73.63273437 28.625 74.5 C28.0475 75.34175781 27.47 76.18351562 26.875 77.05078125 C25.75650095 78.6723495 24.6255952 80.28544788 23.48095703 81.88867188 C22.30374978 83.56695877 21.21359603 85.30623032 20.15625 87.0625 C16.74158587 90.13074893 13.29958473 89.65377704 8.875 89.5 C8.05128906 89.50257813 7.22757813 89.50515625 6.37890625 89.5078125 C1.87739446 89.434138 1.87739446 89.434138 0 89 C-2 86 -2 86 -1.80273438 83.58789062 C-0.93998074 80.80650726 0.14739576 78.95362287 1.84375 76.59375 C2.71821777 75.36289673 2.71821777 75.36289673 3.61035156 74.10717773 C4.23393555 73.24680908 4.85751953 72.38644043 5.5 71.5 C6.77630245 69.70982131 8.05234377 67.91945642 9.328125 66.12890625 C9.95396484 65.25637207 10.57980469 64.38383789 11.22460938 63.48486328 C13.60075809 60.15916999 15.93110736 56.80325219 18.25 53.4375 C19.27867188 51.95056641 19.27867188 51.95056641 20.328125 50.43359375 C23.16510506 46.85210646 23.16510506 46.85210646 23.79125977 42.57861328 C22.96413153 39.88310929 21.94944736 38.04814444 20.33984375 35.7421875 C19.7969873 34.95666504 19.25413086 34.17114258 18.69482422 33.36181641 C18.11490723 32.54116699 17.53499023 31.72051758 16.9375 30.875 C16.34984863 30.0298584 15.76219727 29.1847168 15.15673828 28.31396484 C11.37650353 22.8953861 7.5363695 17.5225565 3.5859375 12.2265625 C3.06257813 11.49179687 2.53921875 10.75703125 2 10 C1.41476562 9.18273437 0.82953125 8.36546875 0.2265625 7.5234375 C-1.24005678 4.50612523 -0.98790355 3.14332948 0 0 Z " fill="#F5F7F7" transform="translate(1057,396)"/>
<path d="M0 0 C6.93 0 13.86 0 21 0 C21 7.92 21 15.84 21 24 C28.59 24 36.18 24 44 24 C44 30.27 44 36.54 44 43 C36.74 43 29.48 43 22 43 C22.07396751 49.478534 22.15677005 55.95567907 22.26245117 62.43359375 C22.29570788 64.63729667 22.32373746 66.84108491 22.34643555 69.04492188 C22.37996738 72.21260955 22.43228336 75.37951469 22.48828125 78.546875 C22.49467117 79.53242371 22.5010611 80.51797241 22.50764465 81.53338623 C22.52743881 82.4540387 22.54723297 83.37469116 22.56762695 84.32324219 C22.58428154 85.53569611 22.58428154 85.53569611 22.60127258 86.77264404 C23.09843451 89.54987113 24.08223205 90.95485588 26 93 C28.49815375 93.52235581 28.49815375 93.52235581 31.25 93.3125 C32.16265625 93.28800781 33.0753125 93.26351562 34.015625 93.23828125 C37.35860934 92.97136758 40.68008262 92.47427391 44 92 C44.66 97.94 45.32 103.88 46 110 C40.27216593 112.43236789 35.25788691 114.54488095 29 115 C27.95392578 115.07734375 27.95392578 115.07734375 26.88671875 115.15625 C19.37743751 115.46751554 12.0574349 113.86098527 6.34765625 108.66015625 C1.83195295 103.09733334 -1.13115471 96.11765707 -1.11352539 88.9777832 C-1.11344986 87.95695145 -1.11337433 86.93611969 -1.11329651 85.88435364 C-1.10813522 84.78427475 -1.10297394 83.68419586 -1.09765625 82.55078125 C-1.0962413 81.4230278 -1.09482635 80.29527435 -1.09336853 79.13334656 C-1.0877647 75.52637088 -1.07521153 71.91945696 -1.0625 68.3125 C-1.05748549 65.86914152 -1.0529225 63.42578207 -1.04882812 60.98242188 C-1.03779403 54.98825741 -1.02052679 48.99413918 -1 43 C-5.29 43 -9.58 43 -14 43 C-14 36.73 -14 30.46 -14 24 C-9.38 24 -4.76 24 0 24 C0 16.08 0 8.16 0 0 Z " fill="#F4F5F6" transform="translate(804,372)"/>
<path d="M0 0 C4.43624595 0.13491125 7.77485207 0.316307 11.09692383 3.45043945 C13.78636087 6.67428725 15.79941914 10.25905826 17.79223633 13.9387207 C19.07020703 16.05123367 20.36063545 18.15629486 21.66723633 20.2512207 C22.1802832 21.15485352 22.69333008 22.05848633 23.22192383 22.98950195 C23.99922852 23.95436523 23.99922852 23.95436523 24.79223633 24.9387207 C26.11223633 24.9387207 27.43223633 24.9387207 28.79223633 24.9387207 C30.65331475 22.56763522 32.22447052 20.30477865 33.79223633 17.7512207 C34.64424855 16.40220134 35.4983799 15.0545178 36.35473633 13.70825195 C36.72727539 13.10601807 37.09981445 12.50378418 37.48364258 11.88330078 C39.11862025 9.45371177 40.94166098 7.20670251 42.79223633 4.9387207 C42.86638801 9.72587693 42.92083837 14.51269897 42.95703125 19.30029297 C42.97211876 20.92893293 42.99259139 22.55753226 43.01855469 24.18603516 C43.05494082 26.52687606 43.07196253 28.86717989 43.08520508 31.20825195 C43.10068893 31.93647659 43.11617279 32.66470123 43.13212585 33.41499329 C43.13383325 38.54245959 43.13383325 38.54245959 41.25439453 40.72265625 C40.77188232 41.12395752 40.28937012 41.52525879 39.79223633 41.9387207 C40.02506781 45.0879398 40.02506781 45.0879398 40.79223633 47.9387207 C41.45223633 47.9387207 42.11223633 47.9387207 42.79223633 47.9387207 C42.79223633 59.4887207 42.79223633 71.0387207 42.79223633 82.9387207 C40.41446651 80.56095089 38.59319214 78.41332238 36.65551758 75.70825195 C36.07866211 74.90581055 35.50180664 74.10336914 34.9074707 73.27661133 C34.31256836 72.44323242 33.71766602 71.60985352 33.10473633 70.7512207 C32.49823242 69.90624023 31.89172852 69.06125977 31.2668457 68.19067383 C29.77282245 66.10845244 28.28139082 64.02442548 26.79223633 61.9387207 C23.68463111 64.8538194 21.36324846 67.87088387 19.04223633 71.4387207 C17.97875977 73.00879883 17.97875977 73.00879883 16.89379883 74.6105957 C14.73592873 77.88792383 14.73592873 77.88792383 13.12817383 81.3918457 C11.28047039 84.95226055 9.86996386 87.34482807 6.79223633 89.9387207 C1.2691385 91.44930038 -5.68152435 91.5113454 -11.20776367 89.9387207 C-12.95483398 88.53515625 -12.95483398 88.53515625 -14.20776367 86.9387207 C-14.19932716 82.06241592 -11.12724616 78.74580706 -8.27026367 75.0637207 C-2.59603049 67.5525795 2.62971762 59.8067305 7.79223633 51.9387207 C8.56696289 50.90875977 9.34168945 49.87879883 10.13989258 48.81762695 C12.03766135 46.14530945 12.03766135 46.14530945 11.58691406 43.5637207 C10.69567324 40.619751 9.47687067 38.58873172 7.72973633 36.05981445 C7.10139893 35.14385498 6.47306152 34.22789551 5.82568359 33.28417969 C5.154646 32.32455322 4.4836084 31.36492676 3.79223633 30.3762207 C3.11539795 29.39274658 2.43855957 28.40927246 1.74121094 27.39599609 C-2.55806358 21.18376751 -6.98693262 15.1318195 -11.76635742 9.27856445 C-13.43305211 6.57300858 -13.60287948 5.06175937 -13.20776367 1.9387207 C-10.46402341 -0.80501955 -3.65398267 0.08404772 0 0 Z " fill="#F5F7F7" transform="translate(1159.207763671875,395.061279296875)"/>
<path d="M0 0 C6.27 0 12.54 0 19 0 C19 46.86 19 93.72 19 142 C12.73 142 6.46 142 0 142 C0 95.14 0 48.28 0 0 Z " fill="#44B9B2" transform="translate(626,352)"/>
<path d="M0 0 C1.83697223 1.71896545 3.40195947 3.47473355 4.94921875 5.45703125 C5.38363281 6.00746094 5.81804688 6.55789063 6.265625 7.125 C10.44058185 13.71474026 9.78926948 22.00065174 8.94921875 29.45703125 C6.8889467 36.77716834 2.35150303 42.38179786 -4.05078125 46.45703125 C-11.05689323 49.34475099 -19.13558771 49.69959218 -26.4921875 47.83984375 C-33.07592245 44.92805491 -37.28404054 39.30661304 -40.98828125 33.33203125 C-43.6255293 26.12904753 -43.01604268 17.14520354 -40.48828125 10.01953125 C-37.27364608 3.11317725 -32.1616148 -1.76046866 -25.05078125 -4.54296875 C-16.12417672 -7.12698585 -7.4293564 -5.58970624 0 0 Z " fill="#112330" transform="translate(924.05078125,418.54296875)"/>
<path d="M0 0 C6.27 0 12.54 0 19 0 C19 33 19 66 19 100 C12.73 100 6.46 100 0 100 C0 67 0 34 0 0 Z " fill="#46B6B2" transform="translate(593,394)"/>
<path d="M0 0 C5.94 0 11.88 0 18 0 C18 25.41 18 50.82 18 77 C12.06 77 6.12 77 0 77 C0 51.59 0 26.18 0 0 Z " fill="#48B7B3" transform="translate(560,417)"/>
<path d="M0 0 C6.27 0 12.54 0 19 0 C19 20.46 19 40.92 19 62 C12.73 62 6.46 62 0 62 C0 41.54 0 21.08 0 0 Z " fill="#49B7B3" transform="translate(526,432)"/>
<path d="M0 0 C6.27 0 12.54 0 19 0 C19 15.18 19 30.36 19 46 C12.73 46 6.46 46 0 46 C0 30.82 0 15.64 0 0 Z " fill="#47B7B3" transform="translate(493,448)"/>
<path d="M0 0 C0.33 0 0.66 0 1 0 C1.07415168 4.78715623 1.12860204 9.57397827 1.16479492 14.36157227 C1.17988243 15.99021223 1.20035506 17.61881156 1.22631836 19.24731445 C1.26270449 21.58815535 1.2797262 23.92845919 1.29296875 26.26953125 C1.30845261 26.99775589 1.32393646 27.72598053 1.33988953 28.47627258 C1.34159692 33.60373889 1.34159692 33.60373889 -0.5378418 35.78393555 C-1.020354 36.18523682 -1.50286621 36.58653809 -2 37 C-1.76716851 40.14921909 -1.76716851 40.14921909 -1 43 C-0.34 43 0.32 43 1 43 C1 54.55 1 66.1 1 78 C-1.38757641 75.61242359 -3.15538904 73.50317768 -5.06640625 70.76953125 C-5.9181543 69.56586914 -5.9181543 69.56586914 -6.78710938 68.33789062 C-7.97751042 66.6446139 -9.16498084 64.94927335 -10.34960938 63.25195312 C-10.91615234 62.45337891 -11.48269531 61.65480469 -12.06640625 60.83203125 C-12.8389978 59.72952026 -12.8389978 59.72952026 -13.62719727 58.60473633 C-14.08022217 58.07517334 -14.53324707 57.54561035 -15 57 C-15.66 57 -16.32 57 -17 57 C-17 56.34 -17 55.68 -17 55 C-15.68 55 -14.36 55 -13 55 C-12.9259281 50.62178091 -12.87143625 46.24389218 -12.83520508 41.86523438 C-12.820104 40.37526091 -12.79962142 38.88533199 -12.77368164 37.39550781 C-12.73735416 35.2557477 -12.72028779 33.11657434 -12.70703125 30.9765625 C-12.6913208 29.68830566 -12.67561035 28.40004883 -12.65942383 27.07275391 C-12.77181396 26.05874512 -12.8842041 25.04473633 -13 24 C-13.99 23.34 -14.98 22.68 -16 22 C-15.26007813 21.29875 -14.52015625 20.5975 -13.7578125 19.875 C-11.0570876 17.05951342 -8.99873141 14.26471652 -6.875 11 C-6.21242188 9.989375 -5.54984375 8.97875 -4.8671875 7.9375 C-3.64960879 6.02197868 -2.46529295 4.0847805 -1.3203125 2.125 C-0.88460938 1.42375 -0.44890625 0.7225 0 0 Z " fill="#B9BEC1" transform="translate(1201,400)"/>
<path d="M0 0 C-0.55312735 4.02992782 -1.1558062 8.02022924 -2 12 C-4.31 12 -6.62 12 -9 12 C-9.38285156 12.85851562 -9.38285156 12.85851562 -9.7734375 13.734375 C-11.13087159 16.24173733 -12.71974104 18.1330456 -14.625 20.25 C-15.57246094 21.30960937 -15.57246094 21.30960937 -16.5390625 22.390625 C-17.02117187 22.92171875 -17.50328125 23.4528125 -18 24 C-21.08510827 22.80023567 -24.05047042 21.49997444 -27 20 C-32.91427029 25.80717083 -38.6409914 31.67610907 -44 38 C-45.14558219 39.33354912 -46.29140257 40.66689367 -47.4375 42 C-48.283125 42.99 -49.12875 43.98 -50 45 C-53.86142204 44.21616433 -56.01328244 42.57189568 -59 40 C-62.53529812 41.47238474 -64.47404006 43.41000759 -66.9375 46.3125 C-69.84578495 49.67941986 -72.80775428 52.89642777 -76 56 C-76.763125 56.763125 -77.52625 57.52625 -78.3125 58.3125 C-78.869375 58.869375 -79.42625 59.42625 -80 60 C-83.45201639 58.52278578 -85.64961936 56.56205999 -88.25 53.875 C-88.95640625 53.15054688 -89.6628125 52.42609375 -90.390625 51.6796875 C-90.92171875 51.12539063 -91.4528125 50.57109375 -92 50 C-95.69883432 51.25810691 -97.7916089 52.47046753 -100.25 55.5 C-100.83910156 56.20253906 -101.42820312 56.90507812 -102.03515625 57.62890625 C-102.68355469 58.41136719 -103.33195313 59.19382812 -104 60 C-105.5502187 61.82301522 -107.11296454 63.63544546 -108.6875 65.4375 C-109.41324219 66.28183594 -110.13898438 67.12617188 -110.88671875 67.99609375 C-113.02070163 70.01963019 -114.12889011 70.64354166 -117 71 C-117 66.32409833 -116.11997802 65.30350614 -113 62 C-112.34 62 -111.68 62 -111 62 C-110.773125 61.443125 -110.54625 60.88625 -110.3125 60.3125 C-108.62449964 57.33840412 -106.53323483 55.27991135 -104 53 C-103.34 53 -102.68 53 -102 53 C-101.773125 52.443125 -101.54625 51.88625 -101.3125 51.3125 C-99.59377841 48.28427625 -97.67211603 46.22676336 -95 44 C-90.94238678 44.16977461 -88.93448653 46.75958024 -86.25 49.5625 C-85.45078125 50.38878906 -84.6515625 51.21507812 -83.828125 52.06640625 C-83.22484375 52.70449219 -82.6215625 53.34257812 -82 54 C-76.8550244 49.8402325 -72.47507039 45.34102165 -68.11328125 40.3671875 C-66.13811503 38.15470926 -64.1900382 36.00100333 -62 34 C-59.01227779 34 -58.08158596 34.92088634 -55.9375 37 C-55.298125 37.66 -54.65875 38.32 -54 39 C-52.515 39.495 -52.515 39.495 -51 40 C-50.74605469 39.41734375 -50.49210938 38.8346875 -50.23046875 38.234375 C-48.86679667 35.75811967 -47.35774797 34.19479374 -45.3125 32.25 C-41.9088235 28.93864745 -38.76979169 25.49744734 -35.67578125 21.8984375 C-33.23731309 19.13597706 -30.63690415 16.57258941 -28 14 C-27.2575 14.309375 -26.515 14.61875 -25.75 14.9375 C-24.8425 15.288125 -23.935 15.63875 -23 16 C-22.05447266 16.39832031 -22.05447266 16.39832031 -21.08984375 16.8046875 C-18.84264515 17.25098778 -18.84264515 17.25098778 -16.89453125 15.41796875 C-15.86392578 14.31388672 -15.86392578 14.31388672 -14.8125 13.1875 C-14.11769531 12.45917969 -13.42289063 11.73085938 -12.70703125 10.98046875 C-10.9515677 9.10747479 -10.9515677 9.10747479 -10 7 C-10.99 6.67 -11.98 6.34 -13 6 C-9.43216717 1.83752837 -5.4396369 0 0 0 Z " fill="#5AA8A8" transform="translate(618,357)"/>
<path d="M0 0 C5.28 0.33 10.56 0.66 16 1 C16.99817428 3.99452284 17.12113549 5.94434483 17.11352539 9.07019043 C17.11341965 10.6428064 17.11341965 10.6428064 17.11331177 12.24719238 C17.10556229 13.97238098 17.10556229 13.97238098 17.09765625 15.73242188 C17.09619598 16.94414062 17.09473572 18.15585937 17.0932312 19.40429688 C17.08941981 22.04144862 17.08379737 24.67852506 17.07516479 27.31565857 C17.06163043 31.49433145 17.05574476 35.67299371 17.05102539 39.85168457 C17.0389779 49.48699462 17.01700419 59.12227729 16.99479675 68.75756836 C16.97457017 77.56800441 16.9564966 86.37843073 16.94658184 95.18888521 C16.94162983 99.33300823 16.93181425 103.47708131 16.91815186 107.62118435 C16.90885814 110.82492418 16.9061605 114.02867156 16.90234375 117.23242188 C16.89459427 118.9333197 16.89459427 118.9333197 16.88668823 120.6685791 C16.88628776 126.75262585 17.16135527 132.68976294 17.8769989 138.73400116 C18 141 18 141 17.0546875 144.16015625 C13.99693513 146.89818166 11.01447685 146.61620569 7.125 146.4375 C6.41730469 146.43169922 5.70960938 146.42589844 4.98046875 146.41992188 C0.8621876 146.32405872 -2.2510423 145.62227771 -6 144 C-5.99861731 142.98923983 -5.99861731 142.98923983 -5.99720669 141.95806026 C-5.97510569 125.5489413 -5.95856612 109.13982706 -5.94818783 92.73069668 C-5.94303535 84.79531252 -5.93601262 76.85993832 -5.92456055 68.92456055 C-5.91458169 62.00669681 -5.90813895 55.08884028 -5.90591151 48.17096955 C-5.90460984 44.50929469 -5.90155843 40.84764045 -5.89426994 37.18597221 C-5.88619246 33.09459399 -5.88601093 29.00325141 -5.88647461 24.91186523 C-5.88287933 23.70273468 -5.87928406 22.49360413 -5.87557983 21.24783325 C-5.21927323 12.12130112 -5.21927323 12.12130112 -8 4 C-8.06058594 4.59167969 -8.12117187 5.18335938 -8.18359375 5.79296875 C-8.62012371 9.90978208 -9.08671346 13.95544533 -10 18 C-11.32 17.67 -12.64 17.34 -14 17 C-13.34 13.7 -12.68 10.4 -12 7 C-16.95 8.485 -16.95 8.485 -22 10 C-22 9.34 -22 8.68 -22 8 C-21.01 8 -20.02 8 -19 8 C-18.67 7.01 -18.34 6.02 -18 5 C-16.35 5 -14.7 5 -13 5 C-13 4.34 -13 3.68 -13 3 C-6.84765625 2.12109375 -6.84765625 2.12109375 -5 2 C-4 3 -4 3 -3.87695217 5.32509708 C-3.87787396 6.36395778 -3.87879576 7.40281847 -3.87974548 8.47315979 C-3.87837082 9.66093018 -3.87699615 10.84870056 -3.87557983 12.07246399 C-3.87917511 13.38732285 -3.88277039 14.7021817 -3.88647461 16.05688477 C-3.88675648 17.44617714 -3.88659875 18.83546967 -3.8860321 20.22476196 C-3.88574412 24.00765289 -3.89164099 27.79051238 -3.89860606 31.57339597 C-3.90483945 35.52255677 -3.90544339 39.47171822 -3.90663147 43.42088318 C-3.90974483 50.90425075 -3.91795828 58.38760379 -3.92798096 65.87096494 C-3.93914195 74.38835733 -3.94465251 82.9057504 -3.94967639 91.42314827 C-3.96014089 108.94877417 -3.97794086 126.474385 -4 144 C2.27 144 8.54 144 15 144 C15 97.14 15 50.28 15 2 C9.72 2 4.44 2 -1 2 C-0.67 1.34 -0.34 0.68 0 0 Z " fill="#032C35" transform="translate(630,350)"/>
<path d="M0 0 C6.27 0 12.54 0 19 0 C19 46.86 19 93.72 19 142 C12.73 142 6.46 142 0 142 C0 95.14 0 48.28 0 0 Z M4 1 C1.67610529 2.87473178 1.67610529 2.87473178 1.86474609 5.9296875 C1.91711426 7.23164063 1.96948242 8.53359375 2.0234375 9.875 C2.07590004 11.45400495 2.12786822 13.03302637 2.17944336 14.61206055 C2.21133759 15.48164398 2.24323181 16.35122742 2.27609253 17.24716187 C2.91929649 35.14910993 3.04442835 53.03807048 3.00390625 70.94921875 C3.0019223 71.9583646 2.99993835 72.96751045 2.99789429 74.00723648 C2.97700423 84.35181394 2.94419882 94.69624408 2.88924885 105.04069805 C2.8702064 108.98819474 2.85901492 112.93568866 2.84956169 116.88321877 C2.84311009 118.7527206 2.83295494 120.62221352 2.81900215 122.49167442 C2.79994116 125.06962194 2.79296454 127.64733365 2.78881836 130.2253418 C2.78005865 130.98910629 2.77129894 131.75287079 2.76227379 132.53977966 C2.62666475 136.72731352 2.62666475 136.72731352 5 140 C9.48886311 141.32025386 13.09517333 141 18 141 C18 94.8 18 48.6 18 1 C13.38 1 8.76 1 4 1 Z " fill="#509FA1" transform="translate(626,352)"/>
<path d="M0 0 C6.27 0 12.54 0 19 0 C19 33 19 66 19 100 C12.73 100 6.46 100 0 100 C0 67 0 34 0 0 Z M3 4 C2.7085151 6.88482186 2.61149497 9.55463149 2.64355469 12.44116211 C2.64151031 13.31445663 2.63946594 14.18775116 2.63735962 15.08750916 C2.63434302 17.98433128 2.65285642 20.88058894 2.671875 23.77734375 C2.67493148 25.78511921 2.67680844 27.79289679 2.67755127 29.80067444 C2.68216002 34.01327602 2.69660672 38.22568704 2.71875 42.43823242 C2.74701462 47.84338333 2.75795912 53.24838386 2.7624321 58.65360165 C2.76658599 62.80137137 2.77640353 66.94911055 2.78830719 71.0968647 C2.79401284 73.09000974 2.79877057 75.08315772 2.80257416 77.0763073 C2.80943613 79.86073859 2.82306889 82.64505023 2.83886719 85.42944336 C2.83998505 86.25708191 2.84110291 87.08472046 2.84225464 87.93743896 C2.86690852 91.21233968 2.95711768 93.87135303 4 97 C6.52475462 98.26237731 8.31200466 98.09856404 11.125 98.0625 C12.03507813 98.05347656 12.94515625 98.04445313 13.8828125 98.03515625 C14.58148437 98.02355469 15.28015625 98.01195312 16 98 C17.65875797 94.68248407 17.12889303 90.97402946 17.11352539 87.32763672 C17.11367142 86.43001617 17.11381744 85.53239563 17.1139679 84.60757446 C17.11326953 81.63158782 17.10548067 78.65566325 17.09765625 75.6796875 C17.0957918 73.61988357 17.09436802 71.56007919 17.09336853 69.50027466 C17.08954548 64.07182598 17.07971699 58.64340395 17.06866455 53.21496582 C17.05844588 47.67847046 17.05386993 42.14197081 17.04882812 36.60546875 C17.03809455 25.73696744 17.02102065 14.86848594 17 4 C11.7502017 1.75771327 7.98200016 0.67866656 3 4 Z " fill="#51A4A6" transform="translate(593,394)"/>
<path d="M0 0 C0.33 0 0.66 0 1 0 C1.07415168 4.78715623 1.12860204 9.57397827 1.16479492 14.36157227 C1.17988243 15.99021223 1.20035506 17.61881156 1.22631836 19.24731445 C1.26270449 21.58815535 1.2797262 23.92845919 1.29296875 26.26953125 C1.30845261 26.99775589 1.32393646 27.72598053 1.33988953 28.47627258 C1.34159692 33.60373889 1.34159692 33.60373889 -0.5378418 35.78393555 C-1.020354 36.18523682 -1.50286621 36.58653809 -2 37 C-1.76716851 40.14921909 -1.76716851 40.14921909 -1 43 C-0.34 43 0.32 43 1 43 C1 54.55 1 66.1 1 78 C-1.62113708 75.37886292 -3.19642667 73.17772443 -5 70 C-4.34 70 -3.68 70 -3 70 C-3.15847412 69.13318604 -3.31694824 68.26637207 -3.48022461 67.37329102 C-3.96536178 64.22479861 -4.20072422 61.20821833 -4.31640625 58.02734375 C-4.35822021 56.88974609 -4.40003418 55.75214844 -4.44311523 54.58007812 C-4.48251221 53.37802734 -4.52190918 52.17597656 -4.5625 50.9375 C-4.60640869 49.70064453 -4.65031738 48.46378906 -4.69555664 47.18945312 C-4.97889567 38.58836703 -5.08112029 30.00220167 -4.87524414 21.39819336 C-4.86356201 20.60678955 -4.85187988 19.81538574 -4.83984375 19 C-4.82300537 18.319375 -4.80616699 17.63875 -4.78881836 16.9375 C-4.8911521 14.89902417 -4.8911521 14.89902417 -6.09130859 12.92480469 C-6.54111084 11.97202637 -6.54111084 11.97202637 -7 11 C-5.69921875 8.203125 -5.69921875 8.203125 -3.6875 5.25 C-3.03136719 4.26515625 -2.37523437 3.2803125 -1.69921875 2.265625 C-1.13847656 1.51796875 -0.57773438 0.7703125 0 0 Z " fill="#9A9FA3" transform="translate(1201,400)"/>
<path d="M0 0 C0.66 0 1.32 0 2 0 C2 46.2 2 92.4 2 140 C-7 140 -7 140 -11 139 C-11 138.67 -11 138.34 -11 138 C-10.36191406 137.95101562 -9.72382812 137.90203125 -9.06640625 137.8515625 C-7.82697266 137.73941406 -7.82697266 137.73941406 -6.5625 137.625 C-5.32693359 137.52058594 -5.32693359 137.52058594 -4.06640625 137.4140625 C-3.38449219 137.27742187 -2.70257812 137.14078125 -2 137 C-0.70667854 134.41335707 -0.86059762 132.53203388 -0.84178162 129.6343689 C-0.82709839 127.92637871 -0.82709839 127.92637871 -0.81211853 126.18388367 C-0.80636307 124.92872452 -0.8006076 123.67356537 -0.79467773 122.38037109 C-0.78477814 121.06334702 -0.77487854 119.74632294 -0.76467896 118.38938904 C-0.7375992 114.77187377 -0.7166063 111.15434542 -0.69667697 107.53678465 C-0.67483632 103.75843631 -0.64743825 99.98012845 -0.62062073 96.20181274 C-0.57066781 89.04433449 -0.52573864 81.88683379 -0.48259836 74.72931159 C-0.43324818 66.58187238 -0.37832184 58.43447379 -0.32291877 50.28707385 C-0.20905883 33.52475332 -0.10222855 16.76239559 0 0 Z " fill="#58B4B4" transform="translate(642,353)"/>
<path d="M0 0 C6.93 0 13.86 0 21 0 C21.02505615 1.87067139 21.0501123 3.74134277 21.07592773 5.66870117 C21.16034949 11.89922915 21.24858825 18.12969429 21.33933926 24.36013317 C21.39414196 28.13190871 21.44748579 31.90369232 21.49731445 35.67553711 C21.54559715 39.32606478 21.59794837 42.97651486 21.65294075 46.6269474 C21.67307939 48.00893494 21.69183319 49.39094348 21.70907402 50.7729702 C21.8197463 59.55317483 22.21281793 68.2536418 23 77 C21.02 77.495 21.02 77.495 19 78 C19 52.59 19 27.18 19 1 C13.06 1 7.12 1 1 1 C1 26.08 1 51.16 1 77 C0.67 77 0.34 77 0 77 C0 51.59 0 26.18 0 0 Z " fill="#134950" transform="translate(559,416)"/>
<path d="M0 0 C6.27 0 12.54 0 19 0 C19 20.46 19 40.92 19 62 C12.73 62 6.46 62 0 62 C0 41.54 0 21.08 0 0 Z M2 1 C2 20.47 2 39.94 2 60 C7.28 60 12.56 60 18 60 C18 40.53 18 21.06 18 1 C12.72 1 7.44 1 2 1 Z " fill="#549FA2" transform="translate(526,432)"/>
<path d="M0 0 C5.94 0 11.88 0 18 0 C18 25.41 18 50.82 18 77 C12.06 77 6.12 77 0 77 C0 53.24 0 29.48 0 5 C0.33 5 0.66 5 1 5 C1.33 27.44 1.66 49.88 2 73 C6.62 73 11.24 73 16 73 C16 49.57 16 26.14 16 2 C11.05 1.67 6.1 1.34 1 1 C0.67 1.66 0.34 2.32 0 3 C0 2.01 0 1.02 0 0 Z " fill="#5EB4B6" transform="translate(560,417)"/>
<path d="M0 0 C0.66 0 1.32 0 2 0 C3.26214845 15.48385688 3.0823714 30.83673013 2.62567139 46.35131836 C2.58357736 47.78308463 2.54276392 49.21488913 2.50323486 50.64672852 C2.44613445 52.67088831 2.38142882 54.69482921 2.31640625 56.71875 C2.27974854 57.90404297 2.24309082 59.08933594 2.20532227 60.31054688 C2 63 2 63 1 64 C-0.4887186 64.08669432 -1.981445 64.10703494 -3.47265625 64.09765625 C-4.37177734 64.09443359 -5.27089844 64.09121094 -6.19726562 64.08789062 C-7.61555664 64.07532227 -7.61555664 64.07532227 -9.0625 64.0625 C-10.01189453 64.05798828 -10.96128906 64.05347656 -11.93945312 64.04882812 C-14.29303065 64.0370011 -16.64648477 64.02052025 -19 64 C-19 63.34 -19 62.68 -19 62 C-12.73 62 -6.46 62 0 62 C0 41.54 0 21.08 0 0 Z " fill="#032D36" transform="translate(545,432)"/>
<path d="M0 0 C0.66 0 1.32 0 2 0 C2 15.18 2 30.36 2 46 C7.94 46 13.88 46 20 46 C20 46.66 20 47.32 20 48 C17.04160645 48.02689449 14.08345573 48.04678741 11.125 48.0625 C10.28324219 48.07087891 9.44148438 48.07925781 8.57421875 48.08789062 C7.76855469 48.09111328 6.96289062 48.09433594 6.1328125 48.09765625 C5.01737061 48.10551147 5.01737061 48.10551147 3.87939453 48.11352539 C2 48 2 48 0 47 C-1.07187142 42.49440589 -1.12880867 38.09183157 -1.1328125 33.4765625 C-1.13376923 32.77155609 -1.13472595 32.06654968 -1.13571167 31.34017944 C-1.1363888 29.85601715 -1.13456727 28.37185183 -1.13037109 26.88769531 C-1.12503229 24.63860274 -1.13032371 22.38971131 -1.13671875 20.140625 C-1.13605757 18.69010373 -1.13477559 17.23958259 -1.1328125 15.7890625 C-1.13168457 14.48662598 -1.13055664 13.18418945 -1.12939453 11.84228516 C-0.99400969 7.82212177 -0.55712476 3.9806481 0 0 Z " fill="#022F37" transform="translate(491,448)"/>
<path d="M0 0 C0.99 0.33 1.98 0.66 3 1 C3.06950833 10.18812922 3.12281539 19.37616794 3.15543652 28.56450272 C3.17109298 32.83101945 3.19233076 37.09735632 3.22631836 41.36376953 C3.25891271 45.48105386 3.27685316 49.59816516 3.28463173 53.71556854 C3.29017512 55.28646315 3.30100004 56.85734829 3.31719017 58.42816925 C3.33896601 60.62842783 3.34196695 62.82797133 3.34057617 65.02832031 C3.34723801 66.28074524 3.35389984 67.53317017 3.36076355 68.82354736 C3 72 3 72 0 76 C0 50.92 0 25.84 0 0 Z " fill="#052935" transform="translate(556,416)"/>
<path d="M0 0 C1.98 0.495 1.98 0.495 4 1 C4.02915731 5.04165139 4.04685173 9.0832755 4.0625 13.125 C4.07087891 14.26710938 4.07925781 15.40921875 4.08789062 16.5859375 C4.09111328 17.69453125 4.09433594 18.803125 4.09765625 19.9453125 C4.10289307 20.96125488 4.10812988 21.97719727 4.11352539 23.02392578 C3.99652309 26.09114726 3.56776417 28.98633134 3 32 C1.68 31.67 0.36 31.34 -1 31 C-1.02469575 26.90658501 -1.04285793 22.81319879 -1.05493164 18.71972656 C-1.0599643 17.32681523 -1.06679098 15.9339092 -1.07543945 14.54101562 C-1.08755152 12.54038754 -1.09270412 10.53972112 -1.09765625 8.5390625 C-1.10289307 7.33459473 -1.10812988 6.13012695 -1.11352539 4.88916016 C-1 2 -1 2 0 0 Z " fill="#ECEEED" transform="translate(1185,423)"/>
<path d="M0 0 C0.66 0 1.32 0 2 0 C1.99476318 0.77375977 1.98952637 1.54751953 1.98413086 2.34472656 C1.85425958 21.45957118 1.85425958 21.45957118 2.4375 40.5625 C2.47673584 41.36913086 2.51597168 42.17576172 2.55639648 43.00683594 C2.77753412 47.10139386 2.77753412 47.10139386 3.58227539 51.10913086 C4 53 4 53 3 55 C2.01 55 1.02 55 0 55 C-0.66 53.68 -1.32 52.36 -2 51 C-1.505 50.505 -1.505 50.505 -1 50 C-0.91209085 48.50621801 -0.89306441 47.0083006 -0.90234375 45.51196289 C-0.90564697 44.55749771 -0.9089502 43.60303253 -0.91235352 42.61964417 C-0.92065186 41.58113815 -0.9289502 40.54263214 -0.9375 39.47265625 C-0.94128662 38.41340439 -0.94507324 37.35415253 -0.94897461 36.26280212 C-0.96540265 31.70974125 -0.99351179 27.15676827 -1.02050781 22.60375977 C-1.03852028 19.28922943 -1.05066179 15.97471344 -1.0625 12.66015625 C-1.07079834 11.62367447 -1.07909668 10.58719269 -1.08764648 9.51930237 C-1.09094971 8.56168503 -1.09425293 7.60406769 -1.09765625 6.61743164 C-1.10289307 5.77217422 -1.10812988 4.92691681 -1.11352539 4.05604553 C-1 2 -1 2 0 0 Z " fill="#AAADB0" transform="translate(1195,415)"/>
<path d="M0 0 C6.27 0 12.54 0 19 0 C19 15.18 19 30.36 19 46 C12.73 46 6.46 46 0 46 C0 30.82 0 15.64 0 0 Z M2 1 C0.39865464 2.60134536 0.87014955 4.3025531 0.8671875 6.515625 C0.86589844 7.43730469 0.86460937 8.35898437 0.86328125 9.30859375 C0.86714844 10.27925781 0.87101562 11.24992187 0.875 12.25 C0.87113281 13.20519531 0.86726563 14.16039062 0.86328125 15.14453125 C0.86457031 16.07136719 0.86585938 16.99820312 0.8671875 17.953125 C0.86831543 18.80036133 0.86944336 19.64759766 0.87060547 20.52050781 C0.94040615 23.06275087 0.94040615 23.06275087 1.57080078 25.75292969 C1.71243652 26.49446289 1.85407227 27.23599609 2 28 C1.67 28.33 1.34 28.66 1 29 C0.92732094 30.81116207 0.91628744 32.6250044 0.9375 34.4375 C0.94652344 35.42621094 0.95554687 36.41492188 0.96484375 37.43359375 C0.97644531 38.28050781 0.98804688 39.12742187 1 40 C1 41.66666667 1 43.33333333 1 45 C6.61 45 12.22 45 18 45 C18 30.48 18 15.96 18 1 C12.72 1 7.44 1 2 1 Z " fill="#4E9A9C" transform="translate(493,448)"/>
<path d="M0 0 C0.66 0 1.32 0 2 0 C2 20.13 2 40.26 2 61 C1.01 60.34 0.02 59.68 -1 59 C-1.36749268 56.65370178 -1.36749268 56.65370178 -1.35644531 53.67993164 C-1.35944641 52.56860367 -1.36244751 51.4572757 -1.36553955 50.31227112 C-1.34701935 48.50447426 -1.34701935 48.50447426 -1.328125 46.66015625 C-1.32625183 45.42712265 -1.32437866 44.19408905 -1.32244873 42.9236908 C-1.31398791 39.64163087 -1.29198635 36.36000609 -1.26428223 33.07806396 C-1.24064873 29.74281151 -1.2392977 26.40759698 -1.234375 23.07226562 C-1.22520284 20.53905769 -1.2148264 18.00585377 -1.203125 15.47265625 C-1.19887512 14.26948257 -1.19462524 13.0663089 -1.19024658 11.82667542 C-1.18063904 10.71219528 -1.17103149 9.59771515 -1.16113281 8.44946289 C-1.15430481 7.46732315 -1.14747681 6.48518341 -1.14044189 5.47328186 C-1 3 -1 3 0 0 Z " fill="#032A34" transform="translate(524,432)"/>
<path d="M0 0 C0.66 0.33 1.32 0.66 2 1 C2.19859939 4.52029806 2.38186528 8.04123805 2.5625 11.5625 C2.61857422 12.55314453 2.67464844 13.54378906 2.73242188 14.56445312 C2.99749338 19.88355469 2.9055215 24.72666892 2 30 C1.93943849 31.64485066 1.91218045 33.29172957 1.9375 34.9375 C1.95103516 36.09572266 1.95103516 36.09572266 1.96484375 37.27734375 C1.97644531 37.84582031 1.98804688 38.41429687 2 39 C0.10546875 39.58203125 0.10546875 39.58203125 -2 40 C-3.9581636 38.47698387 -4.89113011 37.21773977 -6 35 C-4.68 35 -3.36 35 -2 35 C-1.96241577 33.46291382 -1.96241577 33.46291382 -1.92407227 31.89477539 C-1.83015516 28.10590324 -1.72989683 24.31722119 -1.62768555 20.52856445 C-1.58427703 18.88635697 -1.54260642 17.24410261 -1.50268555 15.60180664 C-1.4451256 13.24611255 -1.38139108 10.89065572 -1.31640625 8.53515625 C-1.29969376 7.79660904 -1.28298126 7.05806183 -1.26576233 6.2971344 C-1.11387171 1.11387171 -1.11387171 1.11387171 0 0 Z " fill="#CACCCE" transform="translate(1190,420)"/>
<path d="M0 0 C0.77374619 2.65284409 1.22765629 4.29341963 1 7 C-0.67425097 9.96213633 -2.73356535 12.47079032 -5 15 C-9.20240011 11.28249221 -11.99782679 6.68339021 -15 2 C-12.92446352 1.4465236 -11.15634036 1 -9 1 C-9 1.66 -9 2.32 -9 3 C-8.34 3 -7.68 3 -7 3 C-7 2.34 -7 1.68 -7 1 C-4 0 -4 0 0 0 Z " fill="#162832" transform="translate(1101,408)"/>
<path d="M0 0 C1.65 1.65 3.3 3.3 5 5 C4.34 5.66 3.68 6.32 3 7 C2.01 7 1.02 7 0 7 C-0.12375 7.763125 -0.2475 8.52625 -0.375 9.3125 C-1 12 -1 12 -3 15 C-4.010625 15.45375 -5.02125 15.9075 -6.0625 16.375 C-9.23897875 17.69600703 -9.23897875 17.69600703 -9.875 20.6875 C-9.91625 21.450625 -9.9575 22.21375 -10 23 C-10.66 23 -11.32 23 -12 23 C-12.33 23.66 -12.66 24.32 -13 25 C-15.0625 25.625 -15.0625 25.625 -17 26 C-15.6882242 22.39580047 -14.11163873 19.48548828 -11.875 16.375 C-11.26269531 15.5190625 -10.65039062 14.663125 -10.01953125 13.78125 C-9.35308594 12.8634375 -8.68664063 11.945625 -8 11 C-6.89205078 9.46859375 -6.89205078 9.46859375 -5.76171875 7.90625 C-3.84669898 5.26672008 -1.92607504 2.63146876 0 0 Z " fill="#1D2C33" transform="translate(1185,456)"/>
<path d="M0 0 C1.98 0.99 1.98 0.99 4 2 C3.88205038 6.96639957 3.75782482 11.93258651 3.62768555 16.89868164 C3.58427561 18.58939299 3.54260511 20.28014991 3.50268555 21.97094727 C3.44512906 24.39613606 3.38139351 26.82109415 3.31640625 29.24609375 C3.29969376 30.00651474 3.28298126 30.76693573 3.26576233 31.55039978 C3.11387171 36.88612829 3.11387171 36.88612829 2 38 C1.76924918 39.34747084 1.58846937 40.70377565 1.4375 42.0625 C1.2209375 44.0115625 1.2209375 44.0115625 1 46 C0.67 46 0.34 46 0 46 C0 30.82 0 15.64 0 0 Z " fill="#052834" transform="translate(612,395)"/>
<path d="M0 0 C1.32 0 2.64 0 4 0 C4 14.52 4 29.04 4 44 C-1.61 44 -7.22 44 -13 44 C-13 43.01 -13 42.02 -13 41 C-12.484375 41.165 -11.96875 41.33 -11.4375 41.5 C-7.61349155 42.28441199 -3.55708573 42.77854287 0 41 C0.47158444 38.57778126 0.47158444 38.57778126 0.6328125 35.63671875 C0.71660156 34.52103516 0.80039062 33.40535156 0.88671875 32.25585938 C0.96535156 31.07830078 1.04398437 29.90074219 1.125 28.6875 C1.25455078 26.9849707 1.25455078 26.9849707 1.38671875 25.24804688 C1.92059866 17.82033666 2.10683657 10.44549117 2 3 C1.34 2.67 0.68 2.34 0 2 C0 1.34 0 0.68 0 0 Z " fill="#57B3B1" transform="translate(507,449)"/>
<path d="M0 0 C2.8605891 1.35937085 4.85927699 2.64520469 7 5 C6.01 5.99 5.02 6.98 4 8 C3 5 3 5 3 3 C0.21922827 5.0855788 -2.01527912 7.01920804 -4.1875 9.75 C-4.785625 10.4925 -5.38375 11.235 -6 12 C-6.66 12 -7.32 12 -8 12 C-8.2475 12.804375 -8.495 13.60875 -8.75 14.4375 C-9.1625 15.283125 -9.575 16.12875 -10 17 C-11.875 17.5625 -11.875 17.5625 -14 18 C-16.22977996 19.97901574 -16.22977996 19.97901574 -18 22 C-18.99 21.67 -19.98 21.34 -21 21 C-19.4840625 19.7625 -19.4840625 19.7625 -17.9375 18.5 C-14.53981345 15.59453363 -11.66752026 12.43652044 -8.77734375 9.03515625 C-6.00920762 5.86548828 -3.01525656 2.93277234 0 0 Z " fill="#09333C" transform="translate(557,396)"/>
<path d="M0 0 C0.66 0.33 1.32 0.66 2 1 C1.67 2.65 1.34 4.3 1 6 C0.01 6 -0.98 6 -2 6 C-3.39300182 7.95890881 -4.72245446 9.9639118 -6 12 C-7.75 13.875 -7.75 13.875 -9 15 C-8.01 16.485 -8.01 16.485 -7 18 C-7 18.99 -7 19.98 -7 21 C-13.4 21.49230769 -13.4 21.49230769 -16.4375 19 C-16.953125 18.34 -17.46875 17.68 -18 17 C-17.31550781 16.65324219 -16.63101562 16.30648438 -15.92578125 15.94921875 C-12.08138191 13.38799676 -9.26390898 10.23187543 -6.1875 6.8125 C-5.59001953 6.15830078 -4.99253906 5.50410156 -4.37695312 4.83007812 C-2.91249366 3.22503055 -1.45548993 1.61318577 0 0 Z " fill="#0B333D" transform="translate(519,411)"/>
<path d="M0 0 C0.33 0 0.66 0 1 0 C1.07405295 4.80546679 1.12855497 9.6106029 1.16479492 14.41650391 C1.17989911 16.05197941 1.20038389 17.68741429 1.22631836 19.32275391 C1.26263145 21.67100024 1.27970932 24.01871205 1.29296875 26.3671875 C1.30845261 27.10057343 1.32393646 27.83395935 1.33988953 28.58956909 C1.34057617 30.65185547 1.34057617 30.65185547 1 34 C0.01 34.66 -0.98 35.32 -2 36 C-2.93423645 32.98968256 -3.04449911 32.13349732 -2 29 C-1.85284801 27.37432921 -1.75278133 25.74413143 -1.68359375 24.11328125 C-1.64169922 23.17548828 -1.59980469 22.23769531 -1.55664062 21.27148438 C-1.49766602 19.80678711 -1.49766602 19.80678711 -1.4375 18.3125 C-1.39431641 17.32443359 -1.35113281 16.33636719 -1.30664062 15.31835938 C-1.20058346 12.87904454 -1.09852286 10.43962887 -1 8 C-1.99 8 -2.98 8 -4 8 C-2.66666667 5.33333333 -1.33333333 2.66666667 0 0 Z " fill="#78838A" transform="translate(1201,400)"/>
<path d="M0 0 C4.71569445 4.16090686 8.57411559 9.16328563 11 15 C10.7890625 17.75 10.7890625 17.75 10 20 C9.34 20.33 8.68 20.66 8 21 C6.5625 20 6.5625 20 5 18 C4.80641672 15.99963948 4.61459497 13.99898351 4.44921875 11.99609375 C3.72206106 8.76498436 1.39269805 7.14729312 -1 5 C-1 2 -1 2 0 0 Z " fill="#192933" transform="translate(980,423)"/>
<path d="M0 0 C4.08288689 1.3609623 4.88685817 3.47953322 7.1875 7.0625 C7.90292969 8.16722656 8.61835937 9.27195312 9.35546875 10.41015625 C9.89816406 11.26480469 10.44085937 12.11945313 11 13 C10.67 13.66 10.34 14.32 10 15 C7.67843403 15.40729228 5.3431213 15.74438677 3 16 C3.01160156 15.37351562 3.02320313 14.74703125 3.03515625 14.1015625 C3.04869141 12.87566406 3.04869141 12.87566406 3.0625 11.625 C3.07410156 10.81289063 3.08570313 10.00078125 3.09765625 9.1640625 C3.14466334 6.95062858 3.14466334 6.95062858 2 5 C1.38125 5.350625 0.7625 5.70125 0.125 6.0625 C-0.57625 6.371875 -1.2775 6.68125 -2 7 C-2.66 6.67 -3.32 6.34 -4 6 C-2.68 4.02 -1.36 2.04 0 0 Z " fill="#1B2B35" transform="translate(1094,456)"/>
<path d="M0 0 C0.99 0 1.98 0 3 0 C3 0.99 3 1.98 3 3 C3.99 3 4.98 3 6 3 C6 2.34 6 1.68 6 1 C6.66 1 7.32 1 8 1 C6.125 5.75 6.125 5.75 5 8 C6.65 7.67 8.3 7.34 10 7 C10 9.97 10 12.94 10 16 C9.34 16 8.68 16 8 16 C7.67 19.96 7.34 23.92 7 28 C6.67 28 6.34 28 6 28 C5.90203125 26.81664062 5.8040625 25.63328125 5.703125 24.4140625 C4.90795412 15.72962123 4.07421712 7.8715457 0 0 Z " fill="#24333C" transform="translate(949,416)"/>
<path d="M0 0 C0.99 0.495 0.99 0.495 2 1 C2 1.66 2 2.32 2 3 C2.66 3 3.32 3 4 3 C4 14.55 4 26.1 4 38 C2 36 2 36 1.875 33.8828125 C1.91625 32.97273438 1.9575 32.06265625 2 31.125 C2.13298552 24.29286872 1.45221389 17.63638213 0.7109375 10.85595703 C0.62070313 10.02692871 0.53046875 9.19790039 0.4375 8.34375 C0.35371094 7.60318359 0.26992187 6.86261719 0.18359375 6.09960938 C0.00640229 4.07321768 0 2.03412392 0 0 Z " fill="#7A848B" transform="translate(1198,440)"/>
<path d="M0 0 C5.10097233 5.7591623 5.10097233 5.7591623 5 10 C3.56305678 12.53049927 1.85993042 14.76679634 0 17 C-1.32 16.34 -2.64 15.68 -4 15 C-3.62875 14.2575 -3.2575 13.515 -2.875 12.75 C-1.70484137 10.05716353 -1.70484137 10.05716353 -2.875 7.6875 C-3.24625 7.130625 -3.6175 6.57375 -4 6 C-3.01 5.34 -2.02 4.68 -1 4 C-0.27617533 1.94074861 -0.27617533 1.94074861 0 0 Z " fill="#1B2934" transform="translate(1077,431)"/>
<path d="M0 0 C0.66 0.33 1.32 0.66 2 1 C2.02915731 5.04165139 2.04685173 9.0832755 2.0625 13.125 C2.07087891 14.26710938 2.07925781 15.40921875 2.08789062 16.5859375 C2.09111328 17.69453125 2.09433594 18.803125 2.09765625 19.9453125 C2.10289307 20.96125488 2.10812988 21.97719727 2.11352539 23.02392578 C1.99652309 26.09114726 1.56776417 28.98633134 1 32 C-1.64512571 28.08981417 -1.2618743 23.90346518 -1.1875 19.375 C-1.18105469 18.57336426 -1.17460938 17.77172852 -1.16796875 16.94580078 C-1.09421954 11.24752209 -0.72971728 5.65530888 0 0 Z " fill="#E0E1E1" transform="translate(1187,423)"/>
<path d="M0 0 C0.66 0.33 1.32 0.66 2 1 C1.49517742 5.29475923 0.23082796 7.33731829 -2.8125 10.375 C-3.84310547 11.43847656 -3.84310547 11.43847656 -4.89453125 12.5234375 C-7 14 -7 14 -9.26171875 13.7265625 C-10.12216797 13.36691406 -10.12216797 13.36691406 -11 13 C-9.63055898 10.05043472 -8.12169591 7.47531189 -6 5 C-5.34 5 -4.68 5 -4 5 C-3.566875 4.0409375 -3.566875 4.0409375 -3.125 3.0625 C-2 1 -2 1 0 0 Z " fill="#5BA4A3" transform="translate(511,414)"/>
<path d="M0 0 C2.4375 0.8125 2.4375 0.8125 5 2 C5.33 2.99 5.66 3.98 6 5 C4.7315625 5.309375 4.7315625 5.309375 3.4375 5.625 C-0.84653389 7.33861355 -3.67242567 9.86932356 -7 13 C-8 10 -8 10 -6.875 7.625 C-4.82957869 4.76141017 -2.55306054 2.41505726 0 0 Z " fill="#65AEAE" transform="translate(590,371)"/>
<path d="M0 0 C1.9375 0.1875 1.9375 0.1875 4 1 C4.66 2.32 5.32 3.64 6 5 C3.03 7.97 0.06 10.94 -3 14 C-8 12 -8 12 -10 10 C-6.3558226 7.5705484 -4.28758728 7.83820425 0 8 C0 7.01 0 6.02 0 5 C0.66 5 1.32 5 2 5 C1.01 3.68 0.02 2.36 -1 1 C-0.67 0.67 -0.34 0.34 0 0 Z " fill="#093037" transform="translate(602,361)"/>
<path d="M0 0 C0.99 0.66 1.98 1.32 3 2 C3.1875 5.125 3.1875 5.125 3 8 C2.34 8 1.68 8 1 8 C1 8.66 1 9.32 1 10 C0.01 10.33 -0.98 10.66 -2 11 C-2.66 11.66 -3.32 12.32 -4 13 C-4.66 11.68 -5.32 10.36 -6 9 C-4.02 6.03 -2.04 3.06 0 0 Z " fill="#182832" transform="translate(1131,405)"/>
<path d="M0 0 C4 2 4 2 7 4 C7 4.99 7 5.98 7 7 C5.125 7.625 5.125 7.625 3 8 C2.34 7.34 1.68 6.68 1 6 C-1.95662966 6.22743305 -3.55033688 6.61235938 -5.8125 8.5625 C-6.204375 9.036875 -6.59625 9.51125 -7 10 C-7.66 9.67 -8.32 9.34 -9 9 C-6.03 6.03 -3.06 3.06 0 0 Z " fill="#0B313A" transform="translate(591,376)"/>
<path d="M0 0 C0.33 0 0.66 0 1 0 C1.33 11.88 1.66 23.76 2 36 C-1 36 -1 36 -2.625 34.625 C-4 33 -4 33 -5 31 C-3.68 31 -2.36 31 -1 31 C-0.67 20.77 -0.34 10.54 0 0 Z " fill="#D3D7D7" transform="translate(1189,424)"/>
<path d="M0 0 C1.98 0 3.96 0 6 0 C5.34 0.495 4.68 0.99 4 1.5 C0.0830019 4.76416508 -3.42963049 8.36574714 -7 12 C-8.33217442 13.33449124 -9.66518106 14.66815393 -11 16 C-10.39305845 12.84669446 -9.3583335 10.81111133 -7.4375 8.25 C-6.98246094 7.63640625 -6.52742187 7.0228125 -6.05859375 6.390625 C-5.70925781 5.93171875 -5.35992188 5.4728125 -5 5 C-5.33 4.34 -5.66 3.68 -6 3 C-4.02 2.67 -2.04 2.34 0 2 C0 1.34 0 0.68 0 0 Z " fill="#09313A" transform="translate(553,390)"/>
<path d="M0 0 C0.33 0.66 0.66 1.32 1 2 C8.59 2.33 16.18 2.66 24 3 C24 3.33 24 3.66 24 4 C14.595 4.495 14.595 4.495 5 5 C3.63716826 8.75979645 3.63716826 8.75979645 4.9375 11.25 C5.288125 11.8275 5.63875 12.405 6 13 C5.34 13.66 4.68 14.32 4 15 C4 14.34 4 13.68 4 13 C3.34 13 2.68 13 2 13 C1.690625 11.88625 1.38125 10.7725 1.0625 9.625 C0.17673517 6.2054845 0.17673517 6.2054845 -1 4 C-0.5625 1.875 -0.5625 1.875 0 0 Z " fill="#313E46" transform="translate(962,392)"/>
<path d="M0 0 C0.33 0.66 0.66 1.32 1 2 C2.0828125 2.12375 2.0828125 2.12375 3.1875 2.25 C7.15273891 3.30739704 9.51687709 5.7830332 12 9 C12 9.66 12 10.32 12 11 C7.24819842 10.72048226 5.53651784 8.66389755 2.4921875 5.3671875 C0.4811689 3.52463119 -1.31459361 3.15796508 -4 3 C-3 1 -3 1 0 0 Z " fill="#61A7AA" transform="translate(525,403)"/>
<path d="M0 0 C1.66666667 0 3.33333333 0 5 0 C4.50769231 6.4 4.50769231 6.4 1.9375 9.4375 C0.9784375 10.2109375 0.9784375 10.2109375 0 11 C-3 9 -3 9 -3.625 6.5625 C-3.74875 5.716875 -3.8725 4.87125 -4 4 C-4.33 3.01 -4.66 2.02 -5 1 C-3.68 1 -2.36 1 -1 1 C-0.67 1.33 -0.34 1.66 0 2 C0 1.34 0 0.68 0 0 Z " fill="#0E2432" transform="translate(1047,473)"/>
<path d="M0 0 C0.99 0.33 1.98 0.66 3 1 C1.35828571 3.50279492 -0.28810259 6.00227677 -1.9375 8.5 C-2.40607422 9.21542969 -2.87464844 9.93085938 -3.35742188 10.66796875 C-4.54548488 12.46288408 -5.76986521 14.2336526 -7 16 C-7.33 16 -7.66 16 -8 16 C-8.125 13.125 -8.125 13.125 -8 10 C-7.34 9.34 -6.68 8.68 -6 8 C-5.83312552 5.41645782 -5.83312552 5.41645782 -6 3 C-4.35 3.33 -2.7 3.66 -1 4 C-0.67 2.68 -0.34 1.36 0 0 Z " fill="#192932" transform="translate(977,456)"/>
<path d="M0 0 C2.1875 0.3125 2.1875 0.3125 4 1 C3.875 2.8125 3.875 2.8125 3 5 C-0.0625 6.75 -0.0625 6.75 -3 8 C-3 9.32 -3 10.64 -3 12 C-4.98 11.34 -6.96 10.68 -9 10 C-8.06409496 8.8944811 -7.12620142 7.79064547 -6.1875 6.6875 C-5.66542969 6.07261719 -5.14335938 5.45773437 -4.60546875 4.82421875 C-1.53272511 1.33280444 -1.53272511 1.33280444 0 0 Z " fill="#063038" transform="translate(611,368)"/>
<path d="M0 0 C0.66 0 1.32 0 2 0 C2 0.66 2 1.32 2 2 C7.61 2 13.22 2 19 2 C19 2.33 19 2.66 19 3 C17.75863281 2.99097656 16.51726562 2.98195313 15.23828125 2.97265625 C13.59632232 3.00080412 11.9543952 3.03085206 10.3125 3.0625 C9.49587891 3.05154297 8.67925781 3.04058594 7.83789062 3.02929688 C3.12187938 3.1214371 3.12187938 3.1214371 -0.69775391 5.62060547 C-2.2704543 7.74619374 -2.2704543 7.74619374 -4 11 C-4.99 10.01 -5.98 9.02 -7 8 C-6.34 8 -5.68 8 -5 8 C-4.67 6.35 -4.34 4.7 -4 3 C-3.34 3 -2.68 3 -2 3 C-1.34 2.01 -0.68 1.02 0 0 Z " fill="#324048" transform="translate(1113,393)"/>
<path d="M0 0 C1.65 0 3.3 0 5 0 C5.33 0.99 5.66 1.98 6 3 C5.34 3 4.68 3 4 3 C3.01879536 6.05263664 3.01879536 7.94736336 4 11 C3.030625 11.12375 2.06125 11.2475 1.0625 11.375 C0.051875 11.58125 -0.95875 11.7875 -2 12 C-2.33 12.66 -2.66 13.32 -3 14 C-3.66 13.67 -4.32 13.34 -5 13 C-4.55527344 12.39671875 -4.11054687 11.7934375 -3.65234375 11.171875 C-2.80349609 9.97304688 -2.80349609 9.97304688 -1.9375 8.75 C-1.36902344 7.96109375 -0.80054688 7.1721875 -0.21484375 6.359375 C1.23725737 4.09459779 1.23725737 4.09459779 0.68359375 1.703125 C0.45800781 1.14109375 0.23242188 0.5790625 0 0 Z " fill="#1B2A31" transform="translate(1043,396)"/>
<path d="M0 0 C1.32 0 2.64 0 4 0 C4.05802698 3.43742918 4.09360486 6.87473253 4.125 10.3125 C4.15013672 11.77719727 4.15013672 11.77719727 4.17578125 13.27148438 C4.18222656 14.20927734 4.18867187 15.14707031 4.1953125 16.11328125 C4.20578613 16.97735596 4.21625977 17.84143066 4.22705078 18.73168945 C4 21 4 21 2 24 C2.00523682 23.44014404 2.01047363 22.88028809 2.01586914 22.3034668 C2.03666691 19.76482263 2.04966904 17.22619641 2.0625 14.6875 C2.07087891 13.80642578 2.07925781 12.92535156 2.08789062 12.01757812 C2.09272461 10.74624023 2.09272461 10.74624023 2.09765625 9.44921875 C2.10289307 8.66893311 2.10812988 7.88864746 2.11352539 7.0847168 C2.08137863 4.8038445 2.08137863 4.8038445 1 2 C0.34 1.67 -0.32 1.34 -1 1 C-0.67 0.67 -0.34 0.34 0 0 Z " fill="#92959A" transform="translate(1196,408)"/>
<path d="M0 0 C0 0.33 0 0.66 0 1 C-0.99580078 1.02126953 -0.99580078 1.02126953 -2.01171875 1.04296875 C-8.31157493 1.38325295 -10.62703264 2.25220687 -15 7 C-17.8125 6.8125 -17.8125 6.8125 -20 6 C-20 5.01 -20 4.02 -20 3 C-13.45841601 -0.65111665 -7.36120371 -0.29887594 0 0 Z " fill="#35424B" transform="translate(738,383)"/>
<path d="M0 0 C0.74636719 0.103125 1.49273438 0.20625 2.26171875 0.3125 C2.26171875 1.9625 2.26171875 3.6125 2.26171875 5.3125 C1.60171875 4.6525 0.94171875 3.9925 0.26171875 3.3125 C0.26171875 4.6325 0.26171875 5.9525 0.26171875 7.3125 C-6.36328125 10.3125 -6.36328125 10.3125 -9.73828125 10.3125 C-8.6972009 8.63237032 -7.62958541 6.9686599 -6.55078125 5.3125 C-5.66326172 3.9203125 -5.66326172 3.9203125 -4.7578125 2.5 C-2.73828125 0.3125 -2.73828125 0.3125 0 0 Z " fill="#1E2B35" transform="translate(1091.73828125,463.6875)"/>
<path d="M0 0 C0.66 0.66 1.32 1.32 2 2 C-1.96 7.94 -1.96 7.94 -6 14 C-6.66 13.34 -7.32 12.68 -8 12 C-7.9375 9.5 -7.9375 9.5 -7 7 C-4.4375 5.6875 -4.4375 5.6875 -2 5 C-2.66 4.67 -3.32 4.34 -4 4 C-3.67 3.01 -3.34 2.02 -3 1 C-2.01 0.67 -1.02 0.34 0 0 Z " fill="#203038" transform="translate(1157,458)"/>
<path d="M0 0 C3.48331435 3.01887244 4.79157144 5.56909529 6 10 C3.66666667 10 1.33333333 10 -1 10 C-2.1875 8.375 -2.1875 8.375 -3 6 C-1.625 2.75 -1.625 2.75 0 0 Z " fill="#EBF0F1" transform="translate(771,429)"/>
<path d="M0 0 C0.66 0.99 1.32 1.98 2 3 C0.56252252 7.53358282 -0.90837597 10.47282045 -5 13 C-5.99 12.67 -6.98 12.34 -8 12 C-5.36 8.04 -2.72 4.08 0 0 Z " fill="#233338" transform="translate(1118,424)"/>
<path d="M0 0 C3.33557632 2.9905167 5.15083921 5.93184627 7 10 C4.03 9.67 1.06 9.34 -2 9 C-3 6 -3 6 -1.5625 2.8125 C-1.046875 1.884375 -0.53125 0.95625 0 0 Z " fill="#202E3A" transform="translate(1155,414)"/>
<path d="M0 0 C0.99 1.485 0.99 1.485 2 3 C3.92441415 3.50531866 3.92441415 3.50531866 6.1328125 3.51171875 C6.93847656 3.54716797 7.74414062 3.58261719 8.57421875 3.61914062 C9.41597656 3.64169922 10.25773438 3.66425781 11.125 3.6875 C12.39923828 3.73874023 12.39923828 3.73874023 13.69921875 3.79101562 C15.79901105 3.87359173 17.89948564 3.93846978 20 4 C20 4.66 20 5.32 20 6 C13.4 6 6.8 6 0 6 C0 4.02 0 2.04 0 0 Z " fill="#032A33" transform="translate(558,490)"/>
<path d="M0 0 C2 2 2 2 2.125 4.625 C2.08375 5.40875 2.0425 6.1925 2 7 C3.98 6.67 5.96 6.34 8 6 C6.35 7.98 4.7 9.96 3 12 C0.69 10.02 -1.62 8.04 -4 6 C-3.01 5.01 -2.02 4.02 -1 3 C-0.67 2.01 -0.34 1.02 0 0 Z " fill="#0E2C38" transform="translate(534,400)"/>
<path d="M0 0 C3 3.625 3 3.625 3 7 C2.01 7.33 1.02 7.66 0 8 C-0.33 8.66 -0.66 9.32 -1 10 C-1.66 10 -2.32 10 -3 10 C-3 10.66 -3 11.32 -3 12 C-3.66 12 -4.32 12 -5 12 C-5.33 13.32 -5.66 14.64 -6 16 C-6.99 15.67 -7.98 15.34 -9 15 C-8.60167969 14.50371094 -8.20335937 14.00742187 -7.79296875 13.49609375 C-4.40115025 9.14697367 -1.93684016 5.1649071 0 0 Z " fill="#E0E6E9" transform="translate(932,448)"/>
<path d="M0 0 C3.44868587 4.08733141 6.23793154 8.43805907 9 13 C7.33333333 13 5.66666667 13 4 13 C3.13372601 11.40233897 2.28233535 9.79660056 1.4375 8.1875 C0.96183594 7.29417969 0.48617188 6.40085937 -0.00390625 5.48046875 C-1 3 -1 3 0 0 Z " fill="#243137" transform="translate(1056,401)"/>
<path d="M0 0 C-0.33 1.32 -0.66 2.64 -1 4 C-1.66 4 -2.32 4 -3 4 C-3.061875 4.5775 -3.12375 5.155 -3.1875 5.75 C-4.32027301 8.88690987 -6.34197595 10.09167504 -9 12 C-9 11.34 -9 10.68 -9 10 C-9.99 9.67 -10.98 9.34 -12 9 C-11.67 8.34 -11.34 7.68 -11 7 C-10.01 7.33 -9.02 7.66 -8 8 C-7.7525 7.4225 -7.505 6.845 -7.25 6.25 C-5.58207452 3.24773413 -3.67725381 0 0 0 Z " fill="#073037" transform="translate(576,394)"/>
<path d="M0 0 C0.66 0.99 1.32 1.98 2 3 C1.4375 5.5 1.4375 5.5 0 8 C-1.65532623 9.01866229 -3.32260138 10.01810813 -5 11 C-6.80796103 13.56610666 -6.80796103 13.56610666 -8 16 C-8.66 15.67 -9.32 15.34 -10 15 C-5.05 7.575 -5.05 7.575 0 0 Z " fill="#E0E8EA" transform="translate(1069,458)"/>
<path d="M0 0 C0.33 1.65 0.66 3.3 1 5 C-5.4 5.49230769 -5.4 5.49230769 -8.4375 3 C-8.953125 2.34 -9.46875 1.68 -10 1 C-6.42181037 -1.33958553 -4.07775191 -0.9267618 0 0 Z " fill="#102B39" transform="translate(511,427)"/>
<path d="M0 0 C0.99 0 1.98 0 3 0 C3.66 1.65 4.32 3.3 5 5 C1.33016838 6.62319476 -2.08095153 8.1069425 -6 9 C-5.07544441 7.491987 -4.1349253 5.99375083 -3.1875 4.5 C-2.66542969 3.6646875 -2.14335938 2.829375 -1.60546875 1.96875 C-1.07566406 1.3190625 -0.54585937 0.669375 0 0 Z " fill="#E8F0F3" transform="translate(1155,465)"/>
<path d="M0 0 C-0.33 2.31 -0.66 4.62 -1 7 C-1.33 5.68 -1.66 4.36 -2 3 C-4.02045442 3.60183749 -6.02111039 4.27306096 -8 5 C-8.33 5.66 -8.66 6.32 -9 7 C-10.32 6.67 -11.64 6.34 -13 6 C-9.43216717 1.83752837 -5.4396369 0 0 0 Z " fill="#58999B" transform="translate(618,357)"/>
<path d="M0 0 C0.99 0.66 1.98 1.32 3 2 C1.35 5.3 -0.3 8.6 -2 12 C-2.99 11.34 -3.98 10.68 -5 10 C-4.38545304 6.00544473 -2.29353263 3.25533664 0 0 Z " fill="#DFE5E7" transform="translate(969,472)"/>
<path d="M0 0 C0.33 0.66 0.66 1.32 1 2 C-4.94 2 -10.88 2 -17 2 C-17 1.34 -17 0.68 -17 0 C-14.72979256 -0.19493195 -12.45879711 -0.38070418 -10.1875 -0.5625 C-8.92292969 -0.66691406 -7.65835938 -0.77132813 -6.35546875 -0.87890625 C-3 -1 -3 -1 0 0 Z " fill="#539EA1" transform="translate(577,492)"/>
<path d="M0 0 C0.33 0.66 0.66 1.32 1 2 C1.66 2 2.32 2 3 2 C3.33 1.34 3.66 0.68 4 0 C6 3 6 3 5.75 6.125 C5.5025 7.07375 5.255 8.0225 5 9 C4.01 9.495 4.01 9.495 3 10 C-1.06153846 4.58461538 -1.06153846 4.58461538 -0.75 1.625 C-0.5025 1.08875 -0.255 0.5525 0 0 Z " fill="#1C2A36" transform="translate(1129,465)"/>
<path d="M0 0 C0.33 0 0.66 0 1 0 C1.66 5.61 2.32 11.22 3 17 C2.01 17 1.02 17 0 17 C-1.6875 14.5 -1.6875 14.5 -3 12 C-2.34 11.67 -1.68 11.34 -1 11 C-1.01160156 10.28972656 -1.02320313 9.57945312 -1.03515625 8.84765625 C-1.04417969 7.92855469 -1.05320312 7.00945312 -1.0625 6.0625 C-1.07410156 5.14597656 -1.08570313 4.22945313 -1.09765625 3.28515625 C-1 1 -1 1 0 0 Z " fill="#BCC2C6" transform="translate(1192,448)"/>
<path d="M0 0 C1.09054687 0.02320313 2.18109375 0.04640625 3.3046875 0.0703125 C4.40039062 0.08835937 5.49609375 0.10640625 6.625 0.125 C7.46804688 0.14820313 8.31109375 0.17140625 9.1796875 0.1953125 C6.78143803 2.59356197 5.90633532 2.50967454 2.6171875 2.7578125 C-0.40079038 2.77980553 -0.40079038 2.77980553 -2.8203125 4.1953125 C-3.05224115 5.71000698 -3.23246488 7.23285812 -3.3828125 8.7578125 C-3.46660156 9.58410156 -3.55039062 10.41039062 -3.63671875 11.26171875 C-3.69730469 11.89980469 -3.75789062 12.53789062 -3.8203125 13.1953125 C-4.1503125 13.1953125 -4.4803125 13.1953125 -4.8203125 13.1953125 C-4.87423243 11.40397272 -4.91306821 9.61217351 -4.9453125 7.8203125 C-4.96851563 6.82257813 -4.99171875 5.82484375 -5.015625 4.796875 C-4.73100089 1.00568191 -3.75434285 0.25999604 0 0 Z " fill="#4FB3B1" transform="translate(632.8203125,352.8046875)"/>
<path d="M0 0 C0.33 0 0.66 0 1 0 C1 6.27 1 12.54 1 19 C-0.98 19.33 -2.96 19.66 -5 20 C-4.67 18.02 -4.34 16.04 -4 14 C-3.01 14 -2.02 14 -1 14 C-0.67 9.38 -0.34 4.76 0 0 Z " fill="#33424D" transform="translate(789,396)"/>
<path d="M0 0 C1.32 0.66 2.64 1.32 4 2 C2.71937515 3.7074998 1.38232443 5.37373596 0 7 C-0.66 7 -1.32 7 -2 7 C-2.28875 7.639375 -2.5775 8.27875 -2.875 8.9375 C-4 11 -4 11 -6 12 C-6.33 11.01 -6.66 10.02 -7 9 C-6.21625 8.443125 -5.4325 7.88625 -4.625 7.3125 C-1.91295142 4.92331435 -1.03866457 3.39926587 0 0 Z " fill="#0D3740" transform="translate(516,403)"/>
<path d="M0 0 C1.95216435 3.90432869 2.50639991 6.72213252 3 11 C2.236875 10.835 1.47375 10.67 0.6875 10.5 C-2.03596236 9.90854604 -2.03596236 9.90854604 -5 10 C-3.35 6.7 -1.7 3.4 0 0 Z " fill="#1B2B37" transform="translate(772,380)"/>
<path d="M0 0 C1.98 0.66 3.96 1.32 6 2 C6 2.66 6 3.32 6 4 C7.65 4 9.3 4 11 4 C10.67 5.98 10.34 7.96 10 10 C7.33333333 7.33333333 4.66666667 4.66666667 2 2 C1.34 3.32 0.68 4.64 0 6 C-1.125 2.25 -1.125 2.25 0 0 Z " fill="#E1E6E7" transform="translate(1001,454)"/>
<path d="M0 0 C1.32 0 2.64 0 4 0 C4 1.32 4 2.64 4 4 C4.66 4.33 5.32 4.66 6 5 C5.01 5.99 4.02 6.98 3 8 C2.01 7.01 1.02 6.02 0 5 C-0.66 5.99 -1.32 6.98 -2 8 C-1.125 2.25 -1.125 2.25 0 0 Z " fill="#192C38" transform="translate(1067,449)"/>
<path d="M0 0 C4.2742558 1.5830577 6.26531794 4.50568404 9 8 C8.01 8.33 7.02 8.66 6 9 C5.34 8.67 4.68 8.34 4 8 C4 6.68 4 5.36 4 4 C1.36 4 -1.28 4 -4 4 C-2.68 2.68 -1.36 1.36 0 0 Z " fill="#124149" transform="translate(524,406)"/>
<path d="M0 0 C0 0.99 0 1.98 0 3 C-4.84492197 4.51403812 -8.2591011 3.36602172 -13 2 C-8.62836676 -0.42868513 -4.86219789 -1.62073263 0 0 Z " fill="#1F2D39" transform="translate(760,363)"/>
<path d="M0 0 C3 1 3 1 4.6875 4.0625 C5.120625 5.031875 5.55375 6.00125 6 7 C5.01 7 4.02 7 3 7 C2.67 6.34 2.34 5.68 2 5 C1.38125 5.350625 0.7625 5.70125 0.125 6.0625 C-0.57625 6.371875 -1.2775 6.68125 -2 7 C-2.66 6.67 -3.32 6.34 -4 6 C-2.68 4.02 -1.36 2.04 0 0 Z " fill="#25313B" transform="translate(1094,456)"/>
<path d="M0 0 C0.4125 0.474375 0.825 0.94875 1.25 1.4375 C2.89078817 3.15276627 2.89078817 3.15276627 5.125 3.5 C5.74375 3.665 6.3625 3.83 7 4 C7.33 4.99 7.66 5.98 8 7 C6.68 7.99 5.36 8.98 4 10 C3.13342884 8.90554162 2.28207276 7.79902219 1.4375 6.6875 C0.96183594 6.07261719 0.48617188 5.45773437 -0.00390625 4.82421875 C-0.33261719 4.22222656 -0.66132812 3.62023437 -1 3 C-0.67 2.01 -0.34 1.02 0 0 Z " fill="#25343B" transform="translate(1109,437)"/>
<path d="M0 0 C2.64 0.33 5.28 0.66 8 1 C7 5 7 5 6 9 C2.91910327 6.22719294 1.31224548 3.93673644 0 0 Z " fill="#212F3A" transform="translate(1032,459)"/>
<path d="M0 0 C0.33 0.66 0.66 1.32 1 2 C1.66 2 2.32 2 3 2 C3.66 4.97 4.32 7.94 5 11 C3.35 10.67 1.7 10.34 0 10 C0.04125 9.2575 0.0825 8.515 0.125 7.75 C-0.00398134 4.91241048 -0.57051222 3.41226062 -2 1 C-1.34 0.67 -0.68 0.34 0 0 Z " fill="#E1E6E8" transform="translate(1081,432)"/>
<path d="M0 0 C0.99 0 1.98 0 3 0 C3 0.99 3 1.98 3 3 C3.99 3 4.98 3 6 3 C6 2.34 6 1.68 6 1 C6.66 1 7.32 1 8 1 C6.125 5.75 6.125 5.75 5 8 C5.66 8.33 6.32 8.66 7 9 C6.01 9.33 5.02 9.66 4 10 C2.68 6.7 1.36 3.4 0 0 Z " fill="#1A2B35" transform="translate(949,416)"/>
<path d="M0 0 C1.98 0.495 1.98 0.495 4 1 C3.67 1.99 3.34 2.98 3 4 C3.87483915 6.16715557 3.87483915 6.16715557 5 8 C4.01 8.66 3.02 9.32 2 10 C-1.07692308 5.69230769 -1.07692308 5.69230769 -0.6875 2.1875 C-0.460625 1.465625 -0.23375 0.74375 0 0 Z " fill="#E7ECEE" transform="translate(1057,396)"/>
<path d="M0 0 C2.64 0 5.28 0 8 0 C8.33 0.99 8.66 1.98 9 3 C8.01 4.485 8.01 4.485 7 6 C5.1875 5.8125 5.1875 5.8125 3 5 C1.25 2.4375 1.25 2.4375 0 0 Z " fill="#65AEB0" transform="translate(561,396)"/>
<path d="M0 0 C1.32 0.66 2.64 1.32 4 2 C3.43628586 5.26954202 2.50037734 6.82575883 0 9 C-1.125 7.3125 -1.125 7.3125 -2 5 C-1.125 2.25 -1.125 2.25 0 0 Z " fill="#E4ECEC" transform="translate(1131,396)"/>
<path d="M0 0 C0.33 0 0.66 0 1 0 C1.55573751 2.12136362 2.09421768 4.24725521 2.625 6.375 C2.92664063 7.55835938 3.22828125 8.74171875 3.5390625 9.9609375 C3.69117188 10.96382813 3.84328125 11.96671875 4 13 C3.34 13.66 2.68 14.32 2 15 C1.67 13.68 1.34 12.36 1 11 C0.34 11 -0.32 11 -1 11 C-0.67 7.37 -0.34 3.74 0 0 Z " fill="#27363F" transform="translate(860,448)"/>
<path d="M0 0 C2.475 0.99 2.475 0.99 5 2 C5 2.66 5 3.32 5 4 C6.65 4.33 8.3 4.66 10 5 C9.34 6.32 8.68 7.64 8 9 C3.33845958 7.50164772 2.13389249 4.11536409 0 0 Z " fill="#263036" transform="translate(1179,413)"/>
<path d="M0 0 C1.9375 0.25 1.9375 0.25 4 1 C4.66 1.99 5.32 2.98 6 4 C5.401875 3.79375 4.80375 3.5875 4.1875 3.375 C1.71549154 2.69328085 1.71549154 2.69328085 -1 5 C-0.67 5.66 -0.34 6.32 0 7 C-2.31 7.33 -4.62 7.66 -7 8 C-6.02133662 6.85373678 -5.04205413 5.70800212 -4.0625 4.5625 C-3.51722656 3.92441406 -2.97195313 3.28632813 -2.41015625 2.62890625 C-1.63204305 1.73008851 -0.84063472 0.84063472 0 0 Z " fill="#5E9DA2" transform="translate(523,401)"/>
<path d="M0 0 C4.875 4.625 4.875 4.625 6 8 C3 8 3 8 1 7 C1 6.34 1 5.68 1 5 C0.01 5.33 -0.98 5.66 -2 6 C-1.34 4.02 -0.68 2.04 0 0 Z " fill="#1D2D35" transform="translate(1195,470)"/>
<path d="M0 0 C1.38479551 4.15438653 0.04348203 6.12269256 -1.7421875 9.96875 C-3 12 -3 12 -5.75 13.5625 C-6.4925 13.706875 -7.235 13.85125 -8 14 C-6.6744419 10.37723685 -5.05653045 7.36494652 -2.875 4.1875 C-2.33617187 3.39730469 -1.79734375 2.60710937 -1.2421875 1.79296875 C-0.83226562 1.20128906 -0.42234375 0.60960937 0 0 Z " fill="#DAE3E6" transform="translate(1105,408)"/>
<path d="M0 0 C1.32 0.33 2.64 0.66 4 1 C2.68 3.31 1.36 5.62 0 8 C-2.475 7.01 -2.475 7.01 -5 6 C-4.34 5.01 -3.68 4.02 -3 3 C-2.01 3 -1.02 3 0 3 C0 2.01 0 1.02 0 0 Z " fill="#1B2E37" transform="translate(1191,409)"/>
<path d="M0 0 C1.77480418 2.66220627 2.53804407 3.95109085 3 7 C2.5625 9.0625 2.5625 9.0625 2 11 C2 11.99 2 12.98 2 14 C-1.69904459 8.21019108 -1.69904459 8.21019108 -2 5 C-1.0625 2.25 -1.0625 2.25 0 0 Z " fill="#1F303B" transform="translate(690,409)"/>
<path d="M0 0 C0.103125 0.639375 0.20625 1.27875 0.3125 1.9375 C0.539375 2.618125 0.76625 3.29875 1 4 C1.99 4.33 2.98 4.66 4 5 C2.60804085 7.7839183 0.84424221 7.97898997 -2 9 C-2.66 8.01 -3.32 7.02 -4 6 C-2.68 4.02 -1.36 2.04 0 0 Z " fill="#1A272E" transform="translate(1124,415)"/>
<path d="M0 0 C4.95 0 9.9 0 15 0 C15 0.33 15 0.66 15 1 C12.36 1 9.72 1 7 1 C7 1.66 7 2.32 7 3 C4.36 3 1.72 3 -1 3 C-0.67 2.01 -0.34 1.02 0 0 Z " fill="#4FB0B1" transform="translate(561,418)"/>
<path d="M0 0 C-1.14239817 1.33627775 -2.28901055 2.66895388 -3.4375 4 C-4.07558594 4.7425 -4.71367187 5.485 -5.37109375 6.25 C-6.17740234 7.11625 -6.17740234 7.11625 -7 8 C-7.33 8 -7.66 8 -8 8 C-7.75 4.625 -7.75 4.625 -7 1 C-4.18767584 -1.24985933 -3.47216275 -1.15738758 0 0 Z " fill="#0A333A" transform="translate(508,417)"/>
<path d="M0 0 C2 1 2 1 3.1875 3.25 C4.08937081 6.30248582 3.86361585 7.97734454 3 11 C0.47411298 8.63707344 -0.88820837 7.33537489 -2 4 C-1.34 4 -0.68 4 0 4 C0 2.68 0 1.36 0 0 Z " fill="#1E2D36" transform="translate(996,403)"/>
<path d="M0 0 C2.4375 0.8125 2.4375 0.8125 5 2 C5.33 2.99 5.66 3.98 6 5 C3.69 5.66 1.38 6.32 -1 7 C-1.625 4.625 -1.625 4.625 -2 2 C-1.34 1.34 -0.68 0.68 0 0 Z " fill="#5DA8AA" transform="translate(590,371)"/>
<path d="M0 0 C1.13757948 4.55031791 0.4283779 6.63084406 -1 11 C-2.32 10.34 -3.64 9.68 -5 9 C-3.35 6.03 -1.7 3.06 0 0 Z " fill="#253037" transform="translate(995,468)"/>
<path d="M0 0 C1.37478516 0.01740234 1.37478516 0.01740234 2.77734375 0.03515625 C3.69644531 0.04417969 4.61554688 0.05320312 5.5625 0.0625 C6.27277344 0.07410156 6.98304688 0.08570313 7.71484375 0.09765625 C7.38484375 0.75765625 7.05484375 1.41765625 6.71484375 2.09765625 C4.07484375 2.09765625 1.43484375 2.09765625 -1.28515625 2.09765625 C-1.61515625 3.74765625 -1.94515625 5.39765625 -2.28515625 7.09765625 C-2.61515625 7.09765625 -2.94515625 7.09765625 -3.28515625 7.09765625 C-3.32769981 5.09810879 -3.32596408 3.09723989 -3.28515625 1.09765625 C-2.28515625 0.09765625 -2.28515625 0.09765625 0 0 Z " fill="#54B3B2" transform="translate(497.28515625,448.90234375)"/>
<path d="M0 0 C0.66 0.33 1.32 0.66 2 1 C2.67414892 5.11230844 3 8.83019643 3 13 C0.68468695 10.68468695 -0.07417343 9.13356684 -1 6 C-0.625 2.6875 -0.625 2.6875 0 0 Z " fill="#1E2B32" transform="translate(883,442)"/>
<path d="M0 0 C0.99 0.66 1.98 1.32 3 2 C1.35 4.31 -0.3 6.62 -2 9 C-3.125 7.25 -3.125 7.25 -4 5 C-3.07451225 2.30066074 -2.57626463 1.28813232 0 0 Z " fill="#E4ECEB" transform="translate(1121,415)"/>
<path d="M0 0 C0.66 0.66 1.32 1.32 2 2 C1.59007812 2.67546875 1.18015625 3.3509375 0.7578125 4.046875 C0.21898437 4.93890625 -0.31984375 5.8309375 -0.875 6.75 C-1.40867187 7.63171875 -1.94234375 8.5134375 -2.4921875 9.421875 C-3.75596666 11.58274093 -4.91498835 13.74570395 -6 16 C-6.33 13.69 -6.66 11.38 -7 9 C-6.34 9 -5.68 9 -5 9 C-3.35 6.03 -1.7 3.06 0 0 Z " fill="#25323A" transform="translate(868,410)"/>
<path d="M0 0 C1.921875 0.7109375 1.921875 0.7109375 4 2 C4.828125 4.1640625 4.828125 4.1640625 5.25 6.625 C5.39953125 7.44226563 5.5490625 8.25953125 5.703125 9.1015625 C5.80109375 9.72804688 5.8990625 10.35453125 6 11 C3.3513141 7.80331012 1.06007659 4.60513403 -1 1 C-0.67 0.67 -0.34 0.34 0 0 Z " fill="#E7EEF1" transform="translate(1154,409)"/>
<path d="M0 0 C2 3 2 3 1.625 6.1875 C1.41875 7.115625 1.2125 8.04375 1 9 C-0.65 7.68 -2.3 6.36 -4 5 C-2.68 3.35 -1.36 1.7 0 0 Z " fill="#1D2C36" transform="translate(989,478)"/>
<path d="M0 0 C0.99 0.33 1.98 0.66 3 1 C3 2.32 3 3.64 3 5 C2.34 5 1.68 5 1 5 C0.67 5.66 0.34 6.32 0 7 C-2.0625 7.625 -2.0625 7.625 -4 8 C-2.87548273 5.0280615 -1.77706209 2.66559313 0 0 Z " fill="#22323A" transform="translate(1172,474)"/>
<path d="M0 0 C2.52588702 2.36292656 3.88820837 3.66462511 5 7 C4.01 7.495 4.01 7.495 3 8 C3 7.34 3 6.68 3 6 C1.68 5.67 0.36 5.34 -1 5 C-0.67 5.99 -0.34 6.98 0 8 C-0.66 8 -1.32 8 -2 8 C-2.125 5.125 -2.125 5.125 -2 2 C-1.34 1.34 -0.68 0.68 0 0 Z " fill="#202F39" transform="translate(1150,407)"/>
<path d="M0 0 C0.33 1.32 0.66 2.64 1 4 C0.34 3.67 -0.32 3.34 -1 3 C-1.33 3.66 -1.66 4.32 -2 5 C-1.01 5.33 -0.02 5.66 1 6 C0.01 6.66 -0.98 7.32 -2 8 C-6 3.25 -6 3.25 -6 1 C-3.92446352 0.4465236 -2.15634036 0 0 0 Z " fill="#EDEFEE" transform="translate(972,400)"/>
<path d="M0 0 C0 0.66 0 1.32 0 2 C-2.97 3.32 -5.94 4.64 -9 6 C-8 2 -8 2 -7 0 C-2.52459016 -1.26229508 -2.52459016 -1.26229508 0 0 Z " fill="#1E2B33" transform="translate(890,395)"/>
<path d="M0 0 C2 1 2 1 4 3 C4.66 3 5.32 3 6 3 C6 3.99 6 4.98 6 6 C4.35 6.66 2.7 7.32 1 8 C0.34 5.69 -0.32 3.38 -1 1 C-0.67 0.67 -0.34 0.34 0 0 Z " fill="#192B37" transform="translate(705,361)"/>
<path d="M0 0 C0.71929688 0.29003906 1.43859375 0.58007812 2.1796875 0.87890625 C2.90414062 1.16636719 3.62859375 1.45382812 4.375 1.75 C4.92929687 1.97816406 5.48359375 2.20632813 6.0546875 2.44140625 C5.0646875 3.92640625 5.0646875 3.92640625 4.0546875 5.44140625 C2.1171875 5.12890625 2.1171875 5.12890625 0.0546875 4.44140625 C-0.2753125 3.45140625 -0.6053125 2.46140625 -0.9453125 1.44140625 C-1.9353125 1.77140625 -2.9253125 2.10140625 -3.9453125 2.44140625 C-3.9453125 1.78140625 -3.9453125 1.12140625 -3.9453125 0.44140625 C-1.9453125 -0.55859375 -1.9453125 -0.55859375 0 0 Z " fill="#1D2E39" transform="translate(699.9453125,478.55859375)"/>
<path d="M0 0 C0.66 0 1.32 0 2 0 C1.67 3.63 1.34 7.26 1 11 C0.01 10.34 -0.98 9.68 -2 9 C-1.125 1.125 -1.125 1.125 0 0 Z " fill="#1A2732" transform="translate(997,466)"/>
<path d="M0 0 C0.66 1.32 1.32 2.64 2 4 C1.34 4 0.68 4 0 4 C0 5.65 0 7.3 0 9 C-1.5625 7.75 -1.5625 7.75 -3 6 C-2.72963853 3.02602384 -2.14553974 2.14553974 0 0 Z M3 0 C3.33 0.66 3.66 1.32 4 2 C3.34 1.67 2.68 1.34 2 1 C2.33 0.67 2.66 0.34 3 0 Z " fill="#212D38" transform="translate(1201,434)"/>
<path d="M0 0 C1.32 1.65 2.64 3.3 4 5 C3.01 5.495 3.01 5.495 2 6 C2 6.66 2 7.32 2 8 C1.34 8 0.68 8 0 8 C0 6.68 0 5.36 0 4 C-0.99 3.67 -1.98 3.34 -3 3 C-2.01 2.01 -1.02 1.02 0 0 Z " fill="#ECF0F2" transform="translate(1084,407)"/>
<path d="M0 0 C0.66 0.33 1.32 0.66 2 1 C0.54955729 5.10958767 -1.51110752 8.43258745 -4 12 C-4.66 11.01 -5.32 10.02 -6 9 C-5.01 8.67 -4.02 8.34 -3 8 C-1.82917122 5.07085835 -1.82917122 5.07085835 -1 2 C-0.67 1.34 -0.34 0.68 0 0 Z " fill="#D9E1E3" transform="translate(1043,397)"/>
<path d="M0 0 C1.32 1.32 2.64 2.64 4 4 C3.34 5.32 2.68 6.64 2 8 C1.34 7.01 0.68 6.02 0 5 C-0.99 5.495 -0.99 5.495 -2 6 C-1.125 1.125 -1.125 1.125 0 0 Z " fill="#1F303D" transform="translate(1020,479)"/>
<path d="M0 0 C0.66 0 1.32 0 2 0 C2 2 2 4 2 6 C-0.31 6.33 -2.62 6.66 -5 7 C-4.21654285 5.82780457 -3.42297164 4.66236332 -2.625 3.5 C-2.18414063 2.8503125 -1.74328125 2.200625 -1.2890625 1.53125 C-0.65097656 0.77328125 -0.65097656 0.77328125 0 0 Z " fill="#213039" transform="translate(773,469)"/>
<path d="M0 0 C0.66 0.33 1.32 0.66 2 1 C2 3.31 2 5.62 2 8 C0.35 8.33 -1.3 8.66 -3 9 C-2.5020163 5.26512223 -2.12508244 3.18762365 0 0 Z " fill="#293841" transform="translate(754,448)"/>
<path d="M0 0 C0.33 1.32 0.66 2.64 1 4 C0.02351983 5.02297922 -0.98131338 6.01904252 -2 7 C-3.20049407 10.10007201 -3.20049407 10.10007201 -4 13 C-4.66 11.68 -5.32 10.36 -6 9 C-4.02 6.03 -2.04 3.06 0 0 Z " fill="#2D373E" transform="translate(1024,429)"/>
<path d="M0 0 C0.99 0.33 1.98 0.66 3 1 C2.01 1.495 2.01 1.495 1 2 C1.33 3.32 1.66 4.64 2 6 C0 7 0 7 -3 7 C-2.25 2.25 -2.25 2.25 0 0 Z " fill="#DFE5E8" transform="translate(1148,475)"/>
<path d="M0 0 C0 0.66 0 1.32 0 2 C2.475 2.99 2.475 2.99 5 4 C4.67 4.66 4.34 5.32 4 6 C0.62496331 4.8141763 -1.64722731 3.72426311 -4 1 C-2 0 -2 0 0 0 Z " fill="#E1E5E7" transform="translate(882,476)"/>
<path d="M0 0 C2.475 0.99 2.475 0.99 5 2 C5.33 4.31 5.66 6.62 6 9 C2.91910327 6.22719294 1.31224548 3.93673644 0 0 Z " fill="#E3E8EB" transform="translate(866,463)"/>
<path d="M0 0 C3 1 3 1 4.1875 3.0625 C4.455625 3.701875 4.72375 4.34125 5 5 C4.01 5.99 3.02 6.98 2 8 C2.33 6.68 2.66 5.36 3 4 C1.35 4.33 -0.3 4.66 -2 5 C-1.34 3.35 -0.68 1.7 0 0 Z " fill="#212D33" transform="translate(1003,456)"/>
<path d="M0 0 C0.33 0 0.66 0 1 0 C1.66 2.97 2.32 5.94 3 9 C2.34 8.67 1.68 8.34 1 8 C1 7.34 1 6.68 1 6 C0.34 6 -0.32 6 -1 6 C-1.66 7.32 -2.32 8.64 -3 10 C-3.33 9.34 -3.66 8.68 -4 8 C-3.22265625 6.0546875 -3.22265625 6.0546875 -2.0625 3.875 C-1.49208984 2.78832031 -1.49208984 2.78832031 -0.91015625 1.6796875 C-0.60980469 1.12539063 -0.30945312 0.57109375 0 0 Z " fill="#DCE5E6" transform="translate(1172,438)"/>
<path d="M0 0 C0.66 0.99 1.32 1.98 2 3 C0.73867769 5.52264461 -0.61438008 6.52652887 -3 8 C-3.99 7.67 -4.98 7.34 -6 7 C-4 4 -4 4 -1 3 C-0.67 2.01 -0.34 1.02 0 0 Z " fill="#1C2C35" transform="translate(1116,429)"/>
<path d="M0 0 C0.66 0.66 1.32 1.32 2 2 C2.66 1.34 3.32 0.68 4 0 C4.75 1.6875 4.75 1.6875 5 4 C3.0625 6.75 3.0625 6.75 1 9 C0.67 6.03 0.34 3.06 0 0 Z " fill="#EBECEE" transform="translate(1018,428)"/>
<path d="M0 0 C2.97 0.495 2.97 0.495 6 1 C5.01 2.485 5.01 2.485 4 4 C3.34 4 2.68 4 2 4 C2 4.66 2 5.32 2 6 C0.68 6 -0.64 6 -2 6 C-1.34 4.02 -0.68 2.04 0 0 Z " fill="#ECEEEF" transform="translate(746,416)"/>
<path d="M0 0 C1.65 0.33 3.3 0.66 5 1 C3.68 3.31 2.36 5.62 1 8 C0.34 7.34 -0.32 6.68 -1 6 C-1 2 -1 2 0 0 Z " fill="#21333C" transform="translate(1095,415)"/>
<path d="M0 0 C0.33 0 0.66 0 1 0 C1.36923077 5.41538462 1.36923077 5.41538462 -0.5 8.375 C-0.995 8.91125 -1.49 9.4475 -2 10 C-3.32 9.01 -4.64 8.02 -6 7 C-5.34 6.34 -4.68 5.68 -4 5 C-3.01 5 -2.02 5 -1 5 C-0.67 3.35 -0.34 1.7 0 0 Z " fill="#1F2E3A" transform="translate(766,390)"/>
<path d="M0 0 C0.66 0 1.32 0 2 0 C2.75 2.25 2.75 2.25 3 5 C1.0625 7.3125 1.0625 7.3125 -1 9 C-1.33 8.01 -1.66 7.02 -2 6 C-1.34 6 -0.68 6 0 6 C0 4.02 0 2.04 0 0 Z " fill="#E3EDEC" transform="translate(987,473)"/>
<path d="M0 0 C0.66 1.32 1.32 2.64 2 4 C0 6 -2 8 -4 10 C-4.66 9.67 -5.32 9.34 -6 9 C-4.02 6.03 -2.04 3.06 0 0 Z " fill="#DAE0E2" transform="translate(1014,409)"/>
<path d="M0 0 C0.33 0.66 0.66 1.32 1 2 C1.99 2 2.98 2 4 2 C4.33 2.99 4.66 3.98 5 5 C1.61976483 5 -0.83468937 4.12544378 -4 3 C-3 1 -3 1 0 0 Z " fill="#70B8B9" transform="translate(525,403)"/>
<path d="M0 0 C0.66 0 1.32 0 2 0 C2 1.32 2 2.64 2 4 C-1.3 3.67 -4.6 3.34 -8 3 C-7.67 2.34 -7.34 1.68 -7 1 C-5.5459375 1.0309375 -5.5459375 1.0309375 -4.0625 1.0625 C-1.12534105 1.35618499 -1.12534105 1.35618499 0 0 Z " fill="#539B9E" transform="translate(614,365)"/>
<path d="M0 0 C2.31 0.33 4.62 0.66 7 1 C6.67 1.99 6.34 2.98 6 4 C6 3.34 6 2.68 6 2 C1.05 3.485 1.05 3.485 -4 5 C-4 4.34 -4 3.68 -4 3 C-3.01 3 -2.02 3 -1 3 C-0.67 2.01 -0.34 1.02 0 0 Z " fill="#0F363F" transform="translate(612,355)"/>
<path d="M0 0 C1.98 0 3.96 0 6 0 C5.34 1.98 4.68 3.96 4 6 C2.68 5.67 1.36 5.34 0 5 C0.66 4.67 1.32 4.34 2 4 C2 3.01 2 2.02 2 1 C1.34 0.67 0.68 0.34 0 0 Z " fill="#162937" transform="translate(848,482)"/>
<path d="M0 0 C0.99 0.66 1.98 1.32 3 2 C1.69593116 4.01920337 0.36176581 6.01924973 -1 8 C-1.33 8 -1.66 8 -2 8 C-2.125 5.125 -2.125 5.125 -2 2 C-1.34 1.34 -0.68 0.68 0 0 Z " fill="#23323A" transform="translate(971,464)"/>
<path d="M0 0 C-0.66 0 -1.32 0 -2 0 C-2 0.66 -2 1.32 -2 2 C-1.34 2.33 -0.68 2.66 0 3 C-4.29 2.34 -8.58 1.68 -13 1 C-13 0.67 -13 0.34 -13 0 C-11.58456585 -0.19658808 -10.16755969 -0.38187546 -8.75 -0.5625 C-7.96109375 -0.66691406 -7.1721875 -0.77132813 -6.359375 -0.87890625 C-3.99467126 -1.00027349 -2.2488963 -0.69633257 0 0 Z " fill="#CACFD3" transform="translate(845,466)"/>
<path d="M0 0 C1.32 0.66 2.64 1.32 4 2 C3.34 3.65 2.68 5.3 2 7 C1.01 7 0.02 7 -1 7 C-0.67 4.69 -0.34 2.38 0 0 Z " fill="#1A2D36" transform="translate(689,454)"/>
<path d="M0 0 C1.65 1.65 3.3 3.3 5 5 C1.98968256 5.93423645 1.13349732 6.04449911 -2 5 C-1.34 3.35 -0.68 1.7 0 0 Z " fill="#2E3A45" transform="translate(980,423)"/>
<path d="M0 0 C0.99 0 1.98 0 3 0 C4.0625 2.375 4.0625 2.375 5 5 C4.67 5.66 4.34 6.32 4 7 C3.34 7 2.68 7 2 7 C1.01 5.02 0.02 3.04 -1 1 C-0.67 0.67 -0.34 0.34 0 0 Z " fill="#253035" transform="translate(1002,416)"/>
<path d="M0 0 C0.33 0.66 0.66 1.32 1 2 C1.66 2.33 2.32 2.66 3 3 C2.54625 3.5775 2.0925 4.155 1.625 4.75 C0.15886484 6.7800333 -0.94857784 8.73539843 -2 11 C-2.25 3.375 -2.25 3.375 0 0 Z " fill="#2D383D" transform="translate(714,390)"/>
<path d="M0 0 C0.125 2.875 0.125 2.875 0 6 C-0.66 6.66 -1.32 7.32 -2 8 C-2.99 6.68 -3.98 5.36 -5 4 C-1.125 0 -1.125 0 0 0 Z " fill="#0B2E3A" transform="translate(564,387)"/>
<path d="M0 0 C2.31 1.98 4.62 3.96 7 6 C6.34 6.66 5.68 7.32 5 8 C3.02 6.35 1.04 4.7 -1 3 C-0.67 2.01 -0.34 1.02 0 0 Z " fill="#263339" transform="translate(807,476)"/>
<path d="M0 0 C1.32 0 2.64 0 4 0 C5.125 1.6875 5.125 1.6875 6 4 C5.125 6.75 5.125 6.75 4 9 C3.34 8.67 2.68 8.34 2 8 C1.60828247 6.34608154 1.27942455 4.67654729 1 3 C0.67 2.01 0.34 1.02 0 0 Z " fill="#304049" transform="translate(1042,474)"/>
<path d="M0 0 C2 3 2 3 1.7578125 5.48046875 C1.54898438 6.37378906 1.34015625 7.26710938 1.125 8.1875 C0.92132812 9.08855469 0.71765625 9.98960937 0.5078125 10.91796875 C0.34023438 11.60503906 0.17265625 12.29210937 0 13 C-0.33 13 -0.66 13 -1 13 C-1.02686553 11.02090602 -1.04633375 9.04171029 -1.0625 7.0625 C-1.07410156 5.96035156 -1.08570313 4.85820312 -1.09765625 3.72265625 C-1 1 -1 1 0 0 Z " fill="#2C3942" transform="translate(850,467)"/>
<path d="M0 0 C2.51083114 1.25541557 2.87125446 2.50063488 4 5 C2.35 5.33 0.7 5.66 -1 6 C-1 2 -1 2 0 0 Z " fill="#1A2B39" transform="translate(683,466)"/>
<path d="M0 0 C2.52588702 2.36292656 3.88820837 3.66462511 5 7 C4.01 7 3.02 7 2 7 C2 6.34 2 5.68 2 5 C1.01 5 0.02 5 -1 5 C-0.67 3.35 -0.34 1.7 0 0 Z " fill="#E3E8EA" transform="translate(1108,440)"/>
<path d="M0 0 C1.33332095 2.6666419 0.67102033 4.16680303 0 7 C-1.65 7.33 -3.3 7.66 -5 8 C-3.35 5.36 -1.7 2.72 0 0 Z " fill="#2B3941" transform="translate(1033,416)"/>
<path d="M0 0 C4.67692308 1.47692308 4.67692308 1.47692308 6.3125 4.125 C6.539375 4.74375 6.76625 5.3625 7 6 C5.33333333 6 3.66666667 6 2 6 C0 3 0 3 0 0 Z " fill="#1C2A35" transform="translate(1058,408)"/>
<path d="M0 0 C0.99 0.99 1.98 1.98 3 3 C1.68 4.65 0.36 6.3 -1 8 C-1.5534764 5.92446352 -2 4.15634036 -2 2 C-1.34 2 -0.68 2 0 2 C0 1.34 0 0.68 0 0 Z " fill="#203039" transform="translate(692,377)"/>
<path d="M0 0 C1.32 0.66 2.64 1.32 4 2 C3.01 2.99 2.02 3.98 1 5 C-0.32 4.01 -1.64 3.02 -3 2 C-2.01 1.34 -1.02 0.68 0 0 Z " fill="#19262D" transform="translate(813,483)"/>
<path d="M0 0 C1.32 1.32 2.64 2.64 4 4 C3.34 4 2.68 4 2 4 C1.67 4.99 1.34 5.98 1 7 C0.01 6.67 -0.98 6.34 -2 6 C-2 5.34 -2 4.68 -2 4 C-1.34 4 -0.68 4 0 4 C0 2.68 0 1.36 0 0 Z " fill="#172935" transform="translate(963,481)"/>
<path d="M0 0 C2.475 0.99 2.475 0.99 5 2 C5 2.99 5 3.98 5 5 C2.03 4.505 2.03 4.505 -1 4 C-0.67 2.68 -0.34 1.36 0 0 Z " fill="#192934" transform="translate(883,481)"/>
<path d="M0 0 C0.66 0.66 1.32 1.32 2 2 C0.02 4.97 0.02 4.97 -2 8 C-2.66 7.67 -3.32 7.34 -4 7 C-3.67 5.35 -3.34 3.7 -3 2 C-2.34 2 -1.68 2 -1 2 C-0.67 1.34 -0.34 0.68 0 0 Z " fill="#1C2B33" transform="translate(1061,466)"/>
<path d="M0 0 C1.27875 -0.061875 2.5575 -0.12375 3.875 -0.1875 C4.95394531 -0.23970703 4.95394531 -0.23970703 6.0546875 -0.29296875 C6.69664062 -0.19628906 7.33859375 -0.09960938 8 0 C8.66 0.99 9.32 1.98 10 3 C2.25 2.25 2.25 2.25 0 0 Z " fill="#D3DDE3" transform="translate(720,432)"/>
<path d="M0 0 C0.33 0.66 0.66 1.32 1 2 C1.99 2.33 2.98 2.66 4 3 C4.6875 5.0625 4.6875 5.0625 5 7 C1.73539027 5.19587357 0.11070205 4.16605307 -2 1 C-1.34 0.67 -0.68 0.34 0 0 Z " fill="#1B2A2F" transform="translate(715,401)"/>
<path d="M0 0 C0.99 0.66 1.98 1.32 3 2 C2.34 2 1.68 2 1 2 C1.99 3.65 2.98 5.3 4 7 C0.34683329 5.75023244 -0.78065836 5.32901247 -3 2 C-2.01 2 -1.02 2 0 2 C0 1.34 0 0.68 0 0 Z " fill="#4D9695" transform="translate(596,374)"/>
<path d="M0 0 C0 0.66 0 1.32 0 2 C-0.99 2.33 -1.98 2.66 -3 3 C-3.33 3.66 -3.66 4.32 -4 5 C-5.32 4.67 -6.64 4.34 -8 4 C-5.29881977 1.17603885 -4.05589853 0 0 0 Z " fill="#5FA2A4" transform="translate(613,359)"/>
<path d="M0 0 C0.99 0.33 1.98 0.66 3 1 C3.6875 3.0625 3.6875 3.0625 4 5 C2.68 5.33 1.36 5.66 0 6 C0 4.02 0 2.04 0 0 Z " fill="#1B2B33" transform="translate(803,471)"/>
<path d="M0 0 C0.66 0.99 1.32 1.98 2 3 C1.125 5.6875 1.125 5.6875 0 8 C-0.66 7.34 -1.32 6.68 -2 6 C-1.44444444 1.44444444 -1.44444444 1.44444444 0 0 Z " fill="#172B32" transform="translate(1151,464)"/>
<path d="M0 0 C0.36923077 4.55384615 0.36923077 4.55384615 -1.5 6.8125 C-1.995 7.204375 -2.49 7.59625 -3 8 C-3.6875 5.6875 -3.6875 5.6875 -4 3 C-1.72413793 0 -1.72413793 0 0 0 Z " fill="#192A35" transform="translate(956,454)"/>
<path d="M0 0 C3.68754757 0.49831724 5.60490662 1.10067643 8 4 C6.125 4.625 6.125 4.625 4 5 C2 3 2 3 0 0 Z " fill="#222E39" transform="translate(744,412)"/>
<path d="M0 0 C0.66 0.66 1.32 1.32 2 2 C0.68 3.32 -0.64 4.64 -2 6 C-2.99 5.01 -3.98 4.02 -5 3 C-3.35 2.01 -1.7 1.02 0 0 Z " fill="#66A8AB" transform="translate(519,407)"/>
<path d="M0 0 C0.99 0.33 1.98 0.66 3 1 C0.03 3.475 0.03 3.475 -3 6 C-3 4.68 -3 3.36 -3 2 C-2.01 1.34 -1.02 0.68 0 0 Z " fill="#07383F" transform="translate(539,406)"/>
<path d="M0 0 C0.99 0.33 1.98 0.66 3 1 C1.02 2.98 -0.96 4.96 -3 7 C-3.66 6.67 -4.32 6.34 -5 6 C-3.35 4.02 -1.7 2.04 0 0 Z " fill="#DBE3E6" transform="translate(874,406)"/>
<path d="M0 0 C0.99 0.33 1.98 0.66 3 1 C3.33 1.99 3.66 2.98 4 4 C2.02 4.66 0.04 5.32 -2 6 C-2 3 -2 3 0 0 Z " fill="#E3ECED" transform="translate(1019,402)"/>
<path d="M0 0 C1.32 0.33 2.64 0.66 4 1 C1.03 3.475 1.03 3.475 -2 6 C-2.33 5.34 -2.66 4.68 -3 4 C-2.67 3.34 -2.34 2.68 -2 2 C-1.34 2 -0.68 2 0 2 C0 1.34 0 0.68 0 0 Z " fill="#0F313E" transform="translate(572,386)"/>
<path d="M0 0 C0.66 0 1.32 0 2 0 C2.33 0.66 2.66 1.32 3 2 C5.32156597 2.40729228 7.6568787 2.74438677 10 3 C10 3.33 10 3.66 10 4 C6.7 4 3.4 4 0 4 C0 2.68 0 1.36 0 0 Z " fill="#65ADAE" transform="translate(626,489)"/>
<path d="M0 0 C0.66 0 1.32 0 2 0 C2 1.65 2 3.3 2 5 C0.35 4.67 -1.3 4.34 -3 4 C-1.625 2 -1.625 2 0 0 Z " fill="#20323A" transform="translate(939,475)"/>
<path d="M0 0 C2.97 0.495 2.97 0.495 6 1 C4.625 3.5 4.625 3.5 3 6 C2.34 6 1.68 6 1 6 C0.67 4.02 0.34 2.04 0 0 Z " fill="#1E2D33" transform="translate(962,473)"/>
<path d="M0 0 C0.99 0.66 1.98 1.32 3 2 C2.34 3.32 1.68 4.64 1 6 C-0.5 4.625 -0.5 4.625 -2 3 C-2 2.34 -2 1.68 -2 1 C-1.34 0.67 -0.68 0.34 0 0 Z " fill="#E5EBEE" transform="translate(1099,456)"/>
<path d="M0 0 C1.5625 1.1875 1.5625 1.1875 3 3 C2.6875 5.6875 2.6875 5.6875 2 8 C0.4375 6.8125 0.4375 6.8125 -1 5 C-0.6875 2.3125 -0.6875 2.3125 0 0 Z " fill="#1B2C33" transform="translate(1021,438)"/>
<path d="M0 0 C0 0.99 0 1.98 0 3 C-2.64 2.67 -5.28 2.34 -8 2 C-4.91190305 0.23537317 -3.76687864 0 0 0 Z " fill="#CFD4D6" transform="translate(738,434)"/>
<path d="M0 0 C0.99 0.33 1.98 0.66 3 1 C3.66 0.67 4.32 0.34 5 0 C3.25 4.875 3.25 4.875 1 6 C-0.0625 4.125 -0.0625 4.125 -1 2 C-0.67 1.34 -0.34 0.68 0 0 Z " fill="#1D2D37" transform="translate(1026,426)"/>
<path d="M0 0 C0.33 0.66 0.66 1.32 1 2 C1.66 2.33 2.32 2.66 3 3 C5 4 5 4 6 6 C5.34 6.66 4.68 7.32 4 8 C2.35 5.69 0.7 3.38 -1 1 C-0.67 0.67 -0.34 0.34 0 0 Z " fill="#243038" transform="translate(769,424)"/>
<path d="M0 0 C0.99 0 1.98 0 3 0 C2.34 1.65 1.68 3.3 1 5 C0.01 5 -0.98 5 -2 5 C-2 4.01 -2 3.02 -2 2 C-1.34 2 -0.68 2 0 2 C0 1.34 0 0.68 0 0 Z " fill="#EBF0F1" transform="translate(1027,420)"/>
<path d="M0 0 C1.98 0.99 3.96 1.98 6 3 C5.01 3.99 4.02 4.98 3 6 C1.68 4.35 0.36 2.7 -1 1 C-0.67 0.67 -0.34 0.34 0 0 Z " fill="#DFE5E8" transform="translate(697,418)"/>
<path d="M0 0 C0.66 0.66 1.32 1.32 2 2 C0.7260411 4.03833424 -0.61061923 6.03852126 -2 8 C-2.66 8 -3.32 8 -4 8 C-3.67 6.68 -3.34 5.36 -3 4 C-2.34 4 -1.68 4 -1 4 C-0.67 2.68 -0.34 1.36 0 0 Z " fill="#22313D" transform="translate(1021,395)"/>
<path d="M0 0 C0.66 0.33 1.32 0.66 2 1 C0.15794162 3.54379491 -1.72478134 5.83312509 -4 8 C-4.33 7.01 -4.66 6.02 -5 5 C-3.35 3.35 -1.7 1.7 0 0 Z " fill="#E0E6EA" transform="translate(703,370)"/>
</svg>
