<?xml version="1.0" encoding="UTF-8"?>
<svg version="1.1" xmlns="http://www.w3.org/2000/svg" width="707" height="353">
<path d="M0 0 C-0.52219151 3.86421716 -1.29520298 5.31548896 -4 8 C-4.90094936 9.86863571 -5.80018416 11.73813332 -6.6875 13.61328125 C-8.82093608 17.49283317 -11.57463574 20.90180574 -14.29296875 24.38671875 C-16.07306876 27.11186041 -16.84035112 28.76067277 -17 32 C-16.16808762 34.40472157 -16.16808762 34.40472157 -14.75 36.625 C-14.31171875 37.38039062 -13.8734375 38.13578125 -13.421875 38.9140625 C-12.09479208 40.86093689 -10.7261979 42.40580547 -9 44 C-5.51050539 40.91313938 -3.16292675 37.37394693 -0.64453125 33.50390625 C1.62590132 30.04702436 4.01150745 26.67623293 6.40625 23.3046875 C7.73438851 21.38409504 8.93482771 19.4435162 10.125 17.4375 C12.4261381 14.44602046 13.35807812 14.48289579 17 14 C18.60762488 13.91287922 20.21814279 13.86944238 21.828125 13.8671875 C22.70984375 13.86589844 23.5915625 13.86460937 24.5 13.86328125 C25.4075 13.86714844 26.315 13.87101563 27.25 13.875 C28.17296875 13.87113281 29.0959375 13.86726562 30.046875 13.86328125 C30.9234375 13.86457031 31.8 13.86585938 32.703125 13.8671875 C33.50395508 13.86831543 34.30478516 13.86944336 35.12988281 13.87060547 C37 14 37 14 38 15 C38.09862603 16.39174359 38.1307898 17.78836143 38.1328125 19.18359375 C38.13410156 20.02857422 38.13539063 20.87355469 38.13671875 21.74414062 C38.13285156 22.63294922 38.12898438 23.52175781 38.125 24.4375 C38.12886719 25.32244141 38.13273437 26.20738281 38.13671875 27.11914062 C38.13542969 27.96541016 38.13414062 28.81167969 38.1328125 29.68359375 C38.13168457 30.46275146 38.13055664 31.24190918 38.12939453 32.04467773 C38 34 38 34 37 36 C36.03698975 35.98316162 35.07397949 35.96632324 34.08178711 35.94897461 C30.48235206 35.8980455 26.88503304 35.90679072 23.28540039 35.93286133 C21.73261445 35.93592912 20.17970851 35.92316578 18.62719727 35.89379883 C9.50434884 35.48943968 9.50434884 35.48943968 1.41455078 38.96923828 C-1.13634065 42.18637327 -2.70408624 45.11225873 -4 49 C10.52 49 25.04 49 40 49 C38.838253 54.80873499 36.65737149 57.99106486 32.9375 62.5 C30.92597782 64.92032583 30.92597782 64.92032583 29.6875 67.6875 C28.25377776 70.50184366 26.76815615 72.8214913 24.9375 75.375 C21.18639241 80.61375366 17.80732022 86.04966214 14.46459961 91.55419922 C13.85563843 92.54637451 13.85563843 92.54637451 13.234375 93.55859375 C12.87569336 94.14954834 12.51701172 94.74050293 12.14746094 95.34936523 C10.84231383 97.22683324 9.83970524 98.61743677 8 100 C5.27270508 100.34057617 5.27270508 100.34057617 2.01953125 100.29296875 C0.85615234 100.28330078 -0.30722656 100.27363281 -1.50585938 100.26367188 C-3.32827148 100.2259668 -3.32827148 100.2259668 -5.1875 100.1875 C-6.41404297 100.17396484 -7.64058594 100.16042969 -8.90429688 100.14648438 C-11.93663664 100.11108741 -14.96809996 100.0617076 -18 100 C-17.38315896 95.8493436 -16.77067219 93.11345652 -14.3125 89.6875 C-13.77367187 88.91792969 -13.23484375 88.14835937 -12.6796875 87.35546875 C-12.12539062 86.57816406 -11.57109375 85.80085938 -11 85 C-6.9841505 79.15784709 -3.36802955 73.24076064 0 67 C-2.64 63.04 -5.28 59.08 -8 55 C-10.96829186 58.92862158 -13.50902171 62.83297939 -15.8125 67.1875 C-16.33457031 68.115625 -16.85664063 69.04375 -17.39453125 70 C-19.07141496 73.01163458 -19.07141496 73.01163458 -20.38671875 76.375 C-22.26203844 80.22553535 -23.56498255 82.39596349 -27 85 C-34.76740232 86.69050699 -44.43524177 86.52158608 -52 84 C-52.05790353 80.70840684 -52.09356261 77.41694397 -52.125 74.125 C-52.14175781 73.18785156 -52.15851563 72.25070313 -52.17578125 71.28515625 C-52.18222656 70.38925781 -52.18867187 69.49335938 -52.1953125 68.5703125 C-52.20578613 67.74289551 -52.21625977 66.91547852 -52.22705078 66.06298828 C-52 64 -52 64 -50 62 C-46.92724609 61.77294922 -46.92724609 61.77294922 -43.0234375 61.8046875 C-42.33819 61.8075174 -41.6529425 61.81034729 -40.94692993 61.81326294 C-38.75610973 61.82446719 -36.56569684 61.84957141 -34.375 61.875 C-32.8906309 61.88502952 -31.4062554 61.89415542 -29.921875 61.90234375 C-26.28111739 61.92440706 -22.64059844 61.95893824 -19 62 C-17.515 56.555 -17.515 56.555 -16 51 C-30.19 51 -44.38 51 -59 51 C-58.09219544 46.46097719 -57.80618055 45.30812327 -55.125 42 C-52.80915459 39.1139213 -50.89006419 36.18095854 -49 33 C-47.88897744 31.38612126 -46.76359398 29.78204678 -45.625 28.1875 C-41.03427945 21.66790527 -36.93104303 15.03368896 -33.2109375 7.98046875 C-32 6 -32 6 -30.4140625 4.42578125 C-28.73469867 2.9432942 -28.73469867 2.9432942 -28 0 C-24.27129547 -0.19756803 -20.54203204 -0.38128099 -16.8125 -0.5625 C-15.75740234 -0.61857422 -14.70230469 -0.67464844 -13.61523438 -0.73242188 C-12.59365234 -0.78076172 -11.57207031 -0.82910156 -10.51953125 -0.87890625 C-9.58214111 -0.9260376 -8.64475098 -0.97316895 -7.67895508 -1.02172852 C-4.98697068 -0.99989432 -2.61483024 -0.61586406 0 0 Z " fill="#EF8532" transform="translate(179,121)"/>
<path d="M0 0 C1.00039307 0.24206177 1.00039307 0.24206177 2.02099609 0.48901367 C5.6816222 1.45800294 8.40371129 2.60934079 11.25 5.125 C10.71105575 9.72308129 9.48428472 12.99284369 7.1875 17 C6.63964844 17.96679688 6.09179688 18.93359375 5.52734375 19.9296875 C5.10582031 20.65414062 4.68429687 21.37859375 4.25 22.125 C0.91131116 21.57702569 -0.88444782 21.03994117 -3.8125 19.1875 C-9.3482159 15.90707576 -16.09723062 14.47573608 -22.453125 15.60546875 C-25.87978509 16.69426236 -28.1866415 17.5616415 -30.75 20.125 C-30.91687448 22.70854218 -30.91687448 22.70854218 -30.75 25.125 C-24.21546854 29.32770696 -17.60020735 30.93302431 -10.10742188 32.74804688 C6.59749713 37.00252659 6.59749713 37.00252659 11.3125 44.25 C15.11172098 51.19946472 15.44134739 59.05608242 13.63671875 66.734375 C10.81951837 73.93250812 5.72003378 78.40010573 -1.09765625 81.7890625 C-7.33345886 83.98916822 -13.90566297 83.63790239 -20.4375 83.625 C-22.36625977 83.66753906 -22.36625977 83.66753906 -24.33398438 83.7109375 C-35.60562762 83.73372 -45.72724271 81.08541277 -54.75 74.125 C-52.9168733 68.12567626 -50.67678249 62.67579437 -47.75 57.125 C-44.80403282 58.19626079 -42.34902627 59.37867726 -39.6875 61.0625 C-32.49923904 65.26220608 -22.81934868 67.48380941 -14.65625 65.65625 C-10.56331324 64.41057359 -9.09767991 63.67911485 -6.75 59.9375 C-6.42 59.009375 -6.09 58.08125 -5.75 57.125 C-6.41 57.125 -7.07 57.125 -7.75 57.125 C-7.75 56.465 -7.75 55.805 -7.75 55.125 C-8.33007812 54.93164062 -8.91015625 54.73828125 -9.5078125 54.5390625 C-10.28898437 54.27867187 -11.07015625 54.01828125 -11.875 53.75 C-12.70386719 53.47542969 -13.53273438 53.20085937 -14.38671875 52.91796875 C-16.16152174 52.32245634 -17.92707133 51.6992508 -19.6875 51.0625 C-22.3190937 50.25691009 -24.79883105 49.73310176 -27.5 49.25 C-32.89081392 48.23410194 -37.74019135 46.32078847 -42.75 44.125 C-42.75 43.465 -42.75 42.805 -42.75 42.125 C-43.5853125 41.8465625 -43.5853125 41.8465625 -44.4375 41.5625 C-47.83879722 39.44818011 -49.93397923 36.63415292 -51.75 33.125 C-52.41132982 30.09157638 -52.40852312 27.21850168 -52.3125 24.125 C-52.32345703 23.35671875 -52.33441406 22.5884375 -52.34570312 21.796875 C-52.25876228 14.9807129 -49.89107204 9.96545632 -45.1875 4.9375 C-33.60917883 -6.08105501 -14.14532113 -3.47334221 0 0 Z " fill="#F1F2F3" transform="translate(302.75,124.875)"/>
<path d="M0 0 C5.97067899 5.73880796 7.73070884 12.00871972 8.16796875 20.11328125 C8.23326178 30.80827982 7.77969513 39.04930797 0.01953125 47.0390625 C-8.22010728 54.83906455 -15.2923396 56.51728355 -26.375 56.4375 C-27.35210937 56.45748047 -28.32921875 56.47746094 -29.3359375 56.49804688 C-36.68223412 56.49316237 -43.99810163 55.39716462 -49.77880859 50.48999023 C-51 49 -51 49 -51 47 C-51.8353125 46.7215625 -51.8353125 46.7215625 -52.6875 46.4375 C-56.92709389 43.80207677 -59.28020809 40.21230159 -60.796875 35.55078125 C-62.81684239 26.20160787 -62.92696701 15.42352425 -58 7 C-52.03097961 -2.05397083 -45.70202624 -6.75062878 -35.1875 -9.375 C-21.86343707 -11.57819151 -10.44379259 -8.21153158 0 0 Z M-39 13 C-40.19667203 16.59001609 -40.20538881 19.5904839 -40.25 23.375 C-40.27578125 24.68210937 -40.3015625 25.98921875 -40.328125 27.3359375 C-39.98308356 31.18890022 -39.35168795 32.97873423 -37 36 C-32.21705721 39.40324775 -29.00207711 40.85743959 -23 40 C-17.58298898 37.79647009 -14.96867085 35.53715264 -12.66015625 30.140625 C-11.01882226 24.81842958 -11.43579192 20.70703406 -13.8125 15.6875 C-15.89139671 11.7606951 -17.71182538 9.42939154 -22 8 C-28.77126366 7.06511153 -33.86838193 8.35274384 -39 13 Z " fill="#F1F1F2" transform="translate(434,152)"/>
<path d="M0 0 C2.125 0.2421875 2.125 0.2421875 3.70703125 1.703125 C4.31611328 2.65058594 4.31611328 2.65058594 4.9375 3.6171875 C5.35644531 4.24367187 5.77539062 4.87015625 6.20703125 5.515625 C7.125 7.2421875 7.125 7.2421875 7.125 9.2421875 C7.785 9.2421875 8.445 9.2421875 9.125 9.2421875 C9.805625 10.69625 9.805625 10.69625 10.5 12.1796875 C11.78286221 15.31298332 11.78286221 15.31298332 14.125 16.2421875 C14.42792969 15.74589844 14.73085938 15.24960938 15.04296875 14.73828125 C16.38566876 12.56104154 17.74974444 10.39900906 19.125 8.2421875 C19.55554688 7.56414062 19.98609375 6.88609375 20.4296875 6.1875 C23.60416495 1.43564245 23.60416495 1.43564245 26.00683594 0.54321289 C28.23003319 0.22726058 30.21306766 0.21927756 32.453125 0.36328125 C33.65195312 0.43579102 33.65195312 0.43579102 34.875 0.50976562 C36.1125 0.59387695 36.1125 0.59387695 37.375 0.6796875 C38.21546875 0.73189453 39.0559375 0.78410156 39.921875 0.83789062 C41.9899352 0.96714439 44.0575222 1.10393024 46.125 1.2421875 C44.62260034 4.86160485 43.30354707 7.9743669 41.125 11.2421875 C40.465 11.2421875 39.805 11.2421875 39.125 11.2421875 C38.8775 11.95375 38.63 12.6653125 38.375 13.3984375 C36.5370386 17.57979967 33.76099459 20.90978281 31 24.5234375 C29.22769115 27.09328534 28.00205887 29.25221409 27.125 32.2421875 C27.91730256 35.38480003 27.91730256 35.38480003 30.4375 37.4921875 C32.85842622 39.96941433 34.27912519 42.18879999 35.88671875 45.21875 C37.99662487 48.66648304 40.69127421 51.65424634 43.3203125 54.71484375 C45.29126315 57.47502789 46.21006352 59.99274815 47.125 63.2421875 C44.32752011 66.03966739 36.8107191 64.916117 33.06835938 64.97875977 C25.92852046 64.81710073 25.92852046 64.81710073 22.3515625 62.2578125 C20.60997302 59.65724902 19.35528574 57.11563453 18.125 54.2421875 C17.18242012 52.84185342 16.20692681 51.46260987 15.1875 50.1171875 C14.506875 49.1684375 13.82625 48.2196875 13.125 47.2421875 C9.75114716 50.48298699 7.25786574 54.20593085 4.98120117 58.2980957 C2.95566545 61.56779764 1.50475302 63.87848806 -2.33032227 64.8894043 C-5.17529457 65.02937112 -7.90898206 64.94236763 -10.75 64.7421875 C-11.72453125 64.70609375 -12.6990625 64.67 -13.703125 64.6328125 C-16.09784579 64.53890188 -18.48434709 64.40780694 -20.875 64.2421875 C-20.875 60.82058109 -20.3419808 60.10262062 -18.4375 57.3671875 C-17.89609375 56.5834375 -17.3546875 55.7996875 -16.796875 54.9921875 C-16.16265625 54.0846875 -15.5284375 53.1771875 -14.875 52.2421875 C-14.1081559 51.11801813 -13.34259431 49.99297315 -12.578125 48.8671875 C-11.78161485 47.70027171 -10.98474145 46.53360378 -10.1875 45.3671875 C-9.80730713 44.80789551 -9.42711426 44.24860352 -9.03540039 43.67236328 C-7.5284147 41.48599064 -6.06349412 39.42938166 -4.17578125 37.5546875 C-2.58965562 36.13878907 -2.58965562 36.13878907 -1.75 33.1171875 C-1.91152024 28.11006018 -3.65744798 26.41387998 -6.83203125 22.70703125 C-9.67840326 19.2728807 -11.94497684 15.5477315 -14.296875 11.765625 C-15.58989821 9.69806808 -16.92446298 7.68354377 -18.3125 5.6796875 C-19.875 3.2421875 -19.875 3.2421875 -19.875 1.2421875 C-17.14593526 1.07368957 -14.41676829 0.9073272 -11.6875 0.7421875 C-10.91857422 0.69449219 -10.14964844 0.64679688 -9.35742188 0.59765625 C-7.8621392 0.50781094 -6.36642999 0.42475852 -4.87036133 0.34912109 C-3.24507414 0.26202018 -1.621875 0.13662534 0 0 Z " fill="#EFF0F1" transform="translate(534.875,143.7578125)"/>
<path d="M0 0 C3.06303578 -0.08115993 6.12390815 -0.14057409 9.1875 -0.1875 C10.48397461 -0.22520508 10.48397461 -0.22520508 11.80664062 -0.26367188 C16.71967334 -0.32014352 20.02599185 -0.22462375 24 3 C27.50102824 6.75110169 29.76089299 10.41516183 32 15 C32.66 15.33 33.32 15.66 34 16 C34.30292969 15.5153125 34.60585938 15.030625 34.91796875 14.53125 C36.27864583 12.35416667 37.63932292 10.17708333 39 8 C39.30800537 7.32461182 39.61601074 6.64922363 39.93334961 5.95336914 C41.10577206 3.62120887 42.15608451 1.85508414 44 0 C47.43802776 -1.00900673 50.63914403 -0.8081749 54.1875 -0.5625 C55.55938477 -0.52092773 55.55938477 -0.52092773 56.95898438 -0.47851562 C63.53823324 -0.23088338 63.53823324 -0.23088338 66 1 C64.66749209 4.5875213 63.169283 7.8364623 61 11 C60.34 11 59.68 11 59 11 C58.74089844 11.54527344 58.48179687 12.09054688 58.21484375 12.65234375 C56.79968083 15.38711197 55.20877314 17.96032633 53.5625 20.5625 C52.96566406 21.51253906 52.36882812 22.46257812 51.75390625 23.44140625 C50 26 50 26 48.21484375 27.52734375 C46.72983553 28.99278769 46.72983553 28.99278769 47.10546875 31.4140625 C48.10446896 34.30200197 49.34784291 36.04433613 51.3125 38.375 C53.52153527 41.0834302 55.48662988 43.66204314 57.125 46.75 C58.85963869 50.08097768 58.85963869 50.08097768 61.5625 52.5625 C64.21768725 55.21768725 65.63517535 57.51211478 67 61 C66.67 61.99 66.34 62.98 66 64 C47.29179522 65.63423372 47.29179522 65.63423372 42.22265625 62.01953125 C40.48641365 59.41713589 39.22975829 56.87221513 38 54 C37.05742012 52.59966592 36.08192681 51.22042237 35.0625 49.875 C34.381875 48.92625 33.70125 47.9775 33 47 C31.08298948 48.83623761 29.71689012 50.43477588 28.25 52.6875 C27.89421875 53.19925781 27.5384375 53.71101563 27.171875 54.23828125 C25.93584301 56.02401679 25.93584301 56.02401679 24.890625 58.16796875 C23.11010535 60.99379348 21.93343966 62.32255655 19 64 C12.40835983 65.02062282 5.62459798 64.48758541 -1 64 C-0.2554196 59.49413719 1.19803444 56.65104604 4 53 C4.66 53 5.32 53 6 53 C6.2475 52.28972656 6.495 51.57945312 6.75 50.84765625 C8.14749092 47.66399726 9.90398312 45.20778702 12 42.4375 C16.55546397 36.86334296 16.55546397 36.86334296 17.875 30.125 C16.61524442 25.62587293 14.41215618 22.36660275 11.0625 19.125 C8.66935945 16.65934004 7.07501764 14.03585995 5.3046875 11.10546875 C3.3534176 7.95656314 1.18204533 4.99251932 -1 2 C-0.67 1.34 -0.34 0.68 0 0 Z " fill="#F0F1F2" transform="translate(445,144)"/>
<path d="M0 0 C0.73669922 -0.00386719 1.47339844 -0.00773438 2.23242188 -0.01171875 C7.68581509 -0.00168491 7.68581509 -0.00168491 8.8125 1.125 C8.88570163 3.6577765 8.90477569 6.15603918 8.875 8.6875 C8.854375 11.141875 8.83375 13.59625 8.8125 16.125 C16.7325 15.63 16.7325 15.63 24.8125 15.125 C26.27031334 20.95625335 25.3507288 26.14467996 24.8125 32.125 C19.5325 32.125 14.2525 32.125 8.8125 32.125 C8.87238065 36.37652583 8.95937586 40.62449195 9.0625 44.875 C9.07667969 46.0815625 9.09085937 47.288125 9.10546875 48.53125 C9.13769531 49.69140625 9.16992188 50.8515625 9.203125 52.046875 C9.22407227 53.11518555 9.24501953 54.18349609 9.26660156 55.28417969 C9.93586082 58.76696179 11.02925455 59.98699637 13.8125 62.125 C16.41508427 62.39402765 16.41508427 62.39402765 19.0625 61.875 C20.40054688 61.68164062 20.40054688 61.68164062 21.765625 61.484375 C22.44109375 61.36578125 23.1165625 61.2471875 23.8125 61.125 C25.72876837 66.10729776 26.3672115 70.85184667 26.8125 76.125 C21.5520606 79.34445723 17.2934138 79.61365867 11.3125 79.5625 C10.48363281 79.58248047 9.65476562 79.60246094 8.80078125 79.62304688 C2.31054792 79.61788771 -1.14357421 77.85672828 -6.015625 73.484375 C-6.48484375 72.95328125 -6.9540625 72.4221875 -7.4375 71.875 C-7.91703125 71.35421875 -8.3965625 70.8334375 -8.890625 70.296875 C-13.34822985 62.83172952 -12.4230875 53.99562334 -12.3125 45.625 C-12.30347656 44.325625 -12.29445313 43.02625 -12.28515625 41.6875 C-12.26171733 38.49980701 -12.2289044 35.3125018 -12.1875 32.125 C-13.486875 32.145625 -14.78625 32.16625 -16.125 32.1875 C-17.47915633 32.20899454 -18.83506083 32.19648199 -20.1875 32.125 C-21.1875 31.125 -21.1875 31.125 -21.28515625 27.74609375 C-21.27848369 26.35152923 -21.26652532 24.95698257 -21.25 23.5625 C-21.24548828 22.85158203 -21.24097656 22.14066406 -21.23632812 21.40820312 C-21.22450864 19.64709987 -21.20657263 17.88603964 -21.1875 16.125 C-18.2175 16.125 -15.2475 16.125 -12.1875 16.125 C-12.1875 11.175 -12.1875 6.225 -12.1875 1.125 C-8.02789065 0.08509766 -4.24547184 -0.02264252 0 0 Z " fill="#F3F4F4" transform="translate(342.1875,128.875)"/>
<path d="M0 0 C0 0.99 0 1.98 0 3 C-1.2065625 3.37125 -1.2065625 3.37125 -2.4375 3.75 C-5.09366517 4.69307994 -5.09366517 4.69307994 -5.6875 6.6875 C-5.790625 7.450625 -5.89375 8.21375 -6 9 C-7.74418605 15.74418605 -7.74418605 15.74418605 -10 18 C-10.69384126 19.64629608 -11.38593463 21.29335976 -12.06738281 22.94482422 C-13.83491078 26.83986359 -16.13167769 30.42771156 -18.375 34.0625 C-18.84421875 34.83916016 -19.3134375 35.61582031 -19.796875 36.41601562 C-20.72804523 37.93495491 -21.68091369 39.44083638 -22.65649414 40.93164062 C-24.00065651 42.9344571 -24.00065651 42.9344571 -24.99780273 44.88085938 C-26.01953125 46.53515625 -26.01953125 46.53515625 -29 49 C-33.46063277 49.725854 -37.80896844 49.56395937 -42.3125 49.375 C-43.53001953 49.34792969 -44.74753906 49.32085937 -46.00195312 49.29296875 C-49.00310498 49.22235341 -52.00064712 49.12376972 -55 49 C-54.5020163 45.26512223 -54.12508244 43.18762365 -52 40 C-51.01 40 -50.02 40 -49 40 C-48.896875 39.401875 -48.79375 38.80375 -48.6875 38.1875 C-47.90175967 35.68741714 -47.03081147 34.62464918 -45 33 C-44.34 33 -43.68 33 -43 33 C-42.34 31.02 -41.68 29.04 -41 27 C-40.34 27 -39.68 27 -39 27 C-38.731875 26.05125 -38.46375 25.1025 -38.1875 24.125 C-37 21 -37 21 -34 19 C-34 18.01 -34 17.02 -34 16 C-32.3563186 14.31066078 -30.6857124 12.64740076 -29 11 C-26.21030429 7.15948719 -26.21030429 7.15948719 -24.296875 2.86328125 C-23 1 -23 1 -20.05859375 0.390625 C-18.86363281 0.34421875 -17.66867188 0.2978125 -16.4375 0.25 C-15.18582031 0.19457031 -13.93414062 0.13914063 -12.64453125 0.08203125 C-8.42413403 -0.01296161 -4.22096241 -0.07277521 0 0 Z " fill="#F7B72D" transform="translate(216,172)"/>
<path d="M0 0 C-1.033036 2.32433101 -2.09688095 4.11418112 -3.75 6.0625 C-5.76176599 8.68897227 -7.21010931 11.15009805 -8.75 14.0625 C-9.28109375 15.00867188 -9.8121875 15.95484375 -10.359375 16.9296875 C-12.06669142 20.00101911 -12.06669142 20.00101911 -13.390625 23.3828125 C-15.26413508 27.22987447 -16.56789878 29.39817424 -20 32 C-27.76740232 33.69050699 -37.43524177 33.52158608 -45 31 C-45.05790353 27.70840684 -45.09356261 24.41694397 -45.125 21.125 C-45.14175781 20.18785156 -45.15851563 19.25070313 -45.17578125 18.28515625 C-45.18544922 16.94130859 -45.18544922 16.94130859 -45.1953125 15.5703125 C-45.20578613 14.74289551 -45.21625977 13.91547852 -45.22705078 13.06298828 C-45 11 -45 11 -43 9 C-39.92724609 8.77294922 -39.92724609 8.77294922 -36.0234375 8.8046875 C-35.33819 8.8075174 -34.6529425 8.81034729 -33.94692993 8.81326294 C-31.75610973 8.82446719 -29.56569684 8.84957141 -27.375 8.875 C-25.8906309 8.88502952 -24.4062554 8.89415542 -22.921875 8.90234375 C-19.28111739 8.92440706 -15.64059844 8.95893824 -12 9 C-11.80664062 8.36191406 -11.61328125 7.72382813 -11.4140625 7.06640625 C-11.15367187 6.24011719 -10.89328125 5.41382813 -10.625 4.5625 C-10.24214844 3.32693359 -10.24214844 3.32693359 -9.8515625 2.06640625 C-7.962522 -2.51754983 -4.11476387 -0.68579398 0 0 Z " fill="#2E4981" transform="translate(172,174)"/>
<path d="M0 0 C0.88171875 -0.00128906 1.7634375 -0.00257813 2.671875 -0.00390625 C3.579375 -0.00003906 4.486875 0.00382813 5.421875 0.0078125 C6.34484375 0.00394531 7.2678125 0.00007812 8.21875 -0.00390625 C9.0953125 -0.00261719 9.971875 -0.00132812 10.875 0 C11.67583008 0.00112793 12.47666016 0.00225586 13.30175781 0.00341797 C15.171875 0.1328125 15.171875 0.1328125 16.171875 1.1328125 C16.27050103 2.52455609 16.3026648 3.92117393 16.3046875 5.31640625 C16.30662109 6.58387695 16.30662109 6.58387695 16.30859375 7.87695312 C16.30472656 8.76576172 16.30085938 9.65457031 16.296875 10.5703125 C16.30267578 11.89772461 16.30267578 11.89772461 16.30859375 13.25195312 C16.30730469 14.09822266 16.30601562 14.94449219 16.3046875 15.81640625 C16.30355957 16.59556396 16.30243164 17.37472168 16.30126953 18.17749023 C16.171875 20.1328125 16.171875 20.1328125 15.171875 22.1328125 C14.20886475 22.11597412 13.24585449 22.09913574 12.25366211 22.08178711 C8.65422706 22.030858 5.05690804 22.03960322 1.45727539 22.06567383 C-0.09551055 22.06874162 -1.64841649 22.05597828 -3.20092773 22.02661133 C-12.32377616 21.62225218 -12.32377616 21.62225218 -20.41357422 25.10205078 C-22.96446565 28.31918577 -24.53221124 31.24507123 -25.828125 35.1328125 C-27.148125 34.8028125 -28.468125 34.4728125 -29.828125 34.1328125 C-30.578125 32.3828125 -30.578125 32.3828125 -30.828125 30.1328125 C-29.54702093 28.7492201 -28.19607247 27.43060882 -26.828125 26.1328125 C-25.30960722 24.00776032 -23.897174 21.8257878 -22.47265625 19.63671875 C-20.20222368 16.17983686 -17.81661755 12.80904543 -15.421875 9.4375 C-14.09373649 7.51690754 -12.89329729 5.5763287 -11.703125 3.5703125 C-8.68705167 -0.35058283 -4.69864176 0.00658073 0 0 Z " fill="#47A957" transform="translate(200.828125,134.8671875)"/>
<path d="M0 0 C0.33 1.32 0.66 2.64 1 4 C0.34 4 -0.32 4 -1 4 C-1.66 6.31 -2.32 8.62 -3 11 C11.85 11 26.7 11 42 11 C41.505 8.525 41.505 8.525 41 6 C41.43989258 6.64743164 41.87978516 7.29486328 42.33300781 7.96191406 C46.47593593 11.12789392 50.59096407 10.6031784 55.671875 10.609375 C56.70942932 10.62591125 57.74698364 10.64244751 58.815979 10.65948486 C62.1273791 10.70803985 65.43831971 10.72935302 68.75 10.75 C70.99611696 10.77815332 73.24221245 10.80807984 75.48828125 10.83984375 C80.99210387 10.91380062 86.49579687 10.9653992 92 11 C91.06239342 16.60669794 88.53450549 20.13999335 84.9375 24.5 C82.86477382 27.00718015 82.86477382 27.00718015 81.375 30.25 C80 33 80 33 78 34 C78.33 32.35 78.66 30.7 79 29 C79.66 29 80.32 29 81 29 C80.938125 28.113125 80.87625 27.22625 80.8125 26.3125 C81.02537273 22.5517485 81.6502831 20.91688994 84 18 C86.6875 16.6875 86.6875 16.6875 89 16 C89 15.01 89 14.02 89 13 C87.80375 13.165 86.6075 13.33 85.375 13.5 C78.92958003 14.23219971 72.47704735 14.08292095 66 14 C65.87431641 14.81210938 65.87431641 14.81210938 65.74609375 15.640625 C64.74149281 18.81747823 63.02577067 21.06603503 61.0625 23.75 C60.35222656 24.73484375 59.64195312 25.7196875 58.91015625 26.734375 C58.27980469 27.48203125 57.64945312 28.2296875 57 29 C56.34 29 55.68 29 55 29 C55.495 30.98 55.495 30.98 56 33 C54.02 33.495 54.02 33.495 52 34 C51.855625 34.61875 51.71125 35.2375 51.5625 35.875 C51 38 51 38 50 40 C49.34 40 48.68 40 48 40 C47.773125 40.9075 47.54625 41.815 47.3125 42.75 C45.80442186 46.48428873 44.17422166 47.63968133 41 50 C40.67 50.99 40.34 51.98 40 53 C39.34 53 38.68 53 38 53 C38.96671964 50.18040104 39.93291267 48.08328082 41.8125 45.75 C44.23024289 42.7105518 46.25124179 39.50765947 48.25 36.1875 C48.61351562 35.59001953 48.97703125 34.99253906 49.3515625 34.37695312 C50.23747996 32.91985204 51.11918273 31.4601898 52 30 C51.401875 28.948125 50.80375 27.89625 50.1875 26.8125 C49.82527344 26.17441406 49.46304688 25.53632813 49.08984375 24.87890625 C48.18158388 23.31305321 47.22185316 21.77719782 46.25 20.25 C45 18 45 18 45 15 C42.03 15 39.06 15 36 15 C36 14.34 36 13.68 36 13 C21.81 13 7.62 13 -7 13 C-6.08160162 8.40800812 -5.65998007 7.10508137 -2.9375 3.6875 C-2.38964844 2.99011719 -1.84179688 2.29273438 -1.27734375 1.57421875 C-0.64505859 0.79498047 -0.64505859 0.79498047 0 0 Z " fill="#E6AE35" transform="translate(127,159)"/>
<path d="M0 0 C0.88171875 -0.00128906 1.7634375 -0.00257813 2.671875 -0.00390625 C3.579375 -0.00003906 4.486875 0.00382813 5.421875 0.0078125 C6.34484375 0.00394531 7.2678125 0.00007812 8.21875 -0.00390625 C9.0953125 -0.00261719 9.971875 -0.00132812 10.875 0 C11.67583008 0.00112793 12.47666016 0.00225586 13.30175781 0.00341797 C15.171875 0.1328125 15.171875 0.1328125 16.171875 1.1328125 C16.27050103 2.52455609 16.3026648 3.92117393 16.3046875 5.31640625 C16.30662109 6.58387695 16.30662109 6.58387695 16.30859375 7.87695312 C16.30472656 8.76576172 16.30085938 9.65457031 16.296875 10.5703125 C16.30267578 11.89772461 16.30267578 11.89772461 16.30859375 13.25195312 C16.30730469 14.09822266 16.30601562 14.94449219 16.3046875 15.81640625 C16.30355957 16.59556396 16.30243164 17.37472168 16.30126953 18.17749023 C16.171875 20.1328125 16.171875 20.1328125 15.171875 22.1328125 C14.20886475 22.11597412 13.24585449 22.09913574 12.25366211 22.08178711 C8.65422706 22.030858 5.05690804 22.03960322 1.45727539 22.06567383 C-0.09551055 22.06874162 -1.64841649 22.05597828 -3.20092773 22.02661133 C-12.32377616 21.62225218 -12.32377616 21.62225218 -20.41357422 25.10205078 C-22.96446565 28.31918577 -24.53221124 31.24507123 -25.828125 35.1328125 C-27.148125 34.8028125 -28.468125 34.4728125 -29.828125 34.1328125 C-30.578125 32.3828125 -30.578125 32.3828125 -30.828125 30.1328125 C-29.54702093 28.7492201 -28.19607247 27.43060882 -26.828125 26.1328125 C-25.30960722 24.00776032 -23.897174 21.8257878 -22.47265625 19.63671875 C-20.20222368 16.17983686 -17.81661755 12.80904543 -15.421875 9.4375 C-14.09373649 7.51690754 -12.89329729 5.5763287 -11.703125 3.5703125 C-8.68705167 -0.35058283 -4.69864176 0.00658073 0 0 Z M-5.828125 2.1328125 C-6.158125 3.1228125 -6.488125 4.1128125 -6.828125 5.1328125 C-7.82532781 6.13560188 -8.82568896 7.13525449 -9.828125 8.1328125 C-10.7719569 9.62433277 -11.66667171 11.14782108 -12.515625 12.6953125 C-13.17111328 13.87287109 -13.17111328 13.87287109 -13.83984375 15.07421875 C-14.97238723 17.052723 -14.97238723 17.052723 -14.828125 19.1328125 C-15.488125 19.4628125 -16.148125 19.7928125 -16.828125 20.1328125 C-6.598125 20.1328125 3.631875 20.1328125 14.171875 20.1328125 C15.16698227 16.15238342 15.27219614 12.9674959 15.234375 8.8828125 C15.21375 6.6553125 15.193125 4.4278125 15.171875 2.1328125 C8.241875 2.1328125 1.311875 2.1328125 -5.828125 2.1328125 Z " fill="#377549" transform="translate(200.828125,134.8671875)"/>
<path d="M0 0 C1.96484375 0.125 1.96484375 0.125 4 1 C5.37890625 2.75 5.37890625 2.75 6.5625 5 C6.95566406 5.721875 7.34882813 6.44375 7.75390625 7.1875 C9.4488151 11.01299959 10.67685363 15.03056089 12 19 C4.08 19 -3.84 19 -12 19 C-8.90839695 11.78625954 -8.90839695 11.78625954 -5 8 C-3.96838392 6.01612292 -2.96476382 4.01723344 -2 2 C-1.34 1.34 -0.68 0.68 0 0 Z " fill="#F7B14B" transform="translate(158,152)"/>
<path d="M0 0 C1.32 0.33 2.64 0.66 4 1 C2.74821962 4.46646874 1.63402545 7.3875061 -1 10 C-3.56494618 10.42714081 -5.72322205 10.6047623 -8.29296875 10.609375 C-9.35201164 10.63417938 -9.35201164 10.63417938 -10.43244934 10.65948486 C-12.68422092 10.70801288 -14.93531709 10.72934438 -17.1875 10.75 C-18.71552886 10.77815599 -20.24352619 10.80808291 -21.77148438 10.83984375 C-25.51463484 10.91710595 -29.25564438 10.95757104 -33 11 C-33.33 16.94 -33.66 22.88 -34 29 C-20.29938908 30.18090152 -20.29938908 30.18090152 -8.08984375 25.66015625 C-6.42392068 22.8330203 -5.20101067 20.04805236 -4 17 C-2.45223953 15.08662682 -0.85131182 13.62691038 1 12 C0.34769201 13.67233863 -0.32349889 15.33730085 -1 17 C-1.45890625 18.17175781 -1.9178125 19.34351563 -2.390625 20.55078125 C-4.29733278 24.65304321 -6.20452835 28.37964581 -10 31 C-17.70996864 33.00417493 -27.44750558 32.51749814 -35 30 C-35.05790353 26.70840684 -35.09356261 23.41694397 -35.125 20.125 C-35.14175781 19.18785156 -35.15851563 18.25070313 -35.17578125 17.28515625 C-35.18544922 15.94130859 -35.18544922 15.94130859 -35.1953125 14.5703125 C-35.20578613 13.74289551 -35.21625977 12.91547852 -35.22705078 12.06298828 C-35 10 -35 10 -33 8 C-29.92724609 7.77294922 -29.92724609 7.77294922 -26.0234375 7.8046875 C-25.33819 7.8075174 -24.6529425 7.81034729 -23.94692993 7.81326294 C-21.75610973 7.82446719 -19.56569684 7.84957141 -17.375 7.875 C-15.8906309 7.88502952 -14.4062554 7.89415542 -12.921875 7.90234375 C-9.28111739 7.92440706 -5.64059844 7.95893824 -2 8 C-1.34 5.36 -0.68 2.72 0 0 Z " fill="#22314B" transform="translate(162,175)"/>
<path d="M0 0 C-1.53201526 3.44703434 -3.65269416 6.06586771 -6 9 C-6.309375 9.66 -6.61875 10.32 -6.9375 11 C-8 13 -8 13 -10.3125 15.23046875 C-13.91790446 18.94592189 -16.35194566 23.14606526 -19.03515625 27.55078125 C-19.68355469 28.35902344 -20.33195312 29.16726562 -21 30 C-22.32 30 -23.64 30 -25 30 C-25 29.01 -25 28.02 -25 27 C-24.34 27 -23.68 27 -23 27 C-22.7525 26.484375 -22.505 25.96875 -22.25 25.4375 C-20.90560781 22.81593523 -19.42192479 20.30432796 -17.90234375 17.78125 C-16.77017419 15.70984335 -16.77017419 15.70984335 -16 12 C-24.91 12 -33.82 12 -43 12 C-43 11.67 -43 11.34 -43 11 C-42.05680908 11.01160156 -41.11361816 11.02320313 -40.1418457 11.03515625 C-36.62744451 11.05938604 -33.11689277 11.04779103 -29.6027832 11.01220703 C-28.08488852 11.00411677 -26.56684835 11.01013398 -25.04907227 11.03076172 C-16.38759621 11.4968415 -16.38759621 11.4968415 -8.86474609 8.15234375 C-7.5941222 6.11934552 -6.69450507 4.28916171 -6 2 C-6.99 2.33 -7.98 2.66 -9 3 C-9 2.01 -9 1.02 -9 0 C-5.93109813 -1.53445094 -3.29905734 -0.54984289 0 0 Z " fill="#2B466B" transform="translate(172,174)"/>
<path d="M0 0 C6.6 0 13.2 0 20 0 C18.86634892 4.53460431 17.35806626 5.90024653 14 9 C13.67 8.01 13.34 7.02 13 6 C11.68 7.32 10.36 8.64 9 10 C8.67 9.67 8.34 9.34 8 9 C7.67 10.32 7.34 11.64 7 13 C7 12.01 7 11.02 7 10 C5.68 9.67 4.36 9.34 3 9 C2.01 6.03 1.02 3.06 0 0 Z " fill="#DEA444" transform="translate(172,172)"/>
<path d="M0 0 C0.66 0.33 1.32 0.66 2 1 C0.61071219 3.37904188 -0.78612076 5.75309346 -2.1875 8.125 C-2.57486328 8.79015625 -2.96222656 9.4553125 -3.36132812 10.140625 C-4.15170925 11.47316838 -4.96349827 12.7932348 -5.7956543 14.10009766 C-6.90860438 15.85581984 -7.94266554 17.66088691 -8.96875 19.46875 C-13.88554111 23.57452402 -19.13609853 22.63414971 -25.3125 22.375 C-26.53001953 22.34792969 -27.74753906 22.32085937 -29.00195312 22.29296875 C-32.00310498 22.22235341 -35.00064712 22.12376972 -38 22 C-37.08035714 15.41071429 -37.08035714 15.41071429 -34 13 C-34.875 17.75 -34.875 17.75 -36 20 C-32.37441264 19.69408272 -28.74966425 19.37915282 -25.125 19.0625 C-24.09246094 18.97548828 -23.05992187 18.88847656 -21.99609375 18.79882812 C-21.00996094 18.71181641 -20.02382812 18.62480469 -19.0078125 18.53515625 C-18.09660645 18.456604 -17.18540039 18.37805176 -16.24658203 18.29711914 C-13.968356 18.12004581 -13.968356 18.12004581 -12 17 C-11.690625 16.030625 -11.38125 15.06125 -11.0625 14.0625 C-10 11 -10 11 -7 9 C-6.01 9 -5.02 9 -4 9 C-3.67 7.35 -3.34 5.7 -3 4 C-2.34 4 -1.68 4 -1 4 C-0.67 2.68 -0.34 1.36 0 0 Z " fill="#C7A149" transform="translate(199,199)"/>
<path d="M0 0 C0.33 1.32 0.66 2.64 1 4 C0.34 4 -0.32 4 -1 4 C-1.66 6.31 -2.32 8.62 -3 11 C11.85 11 26.7 11 42 11 C41.505 8.525 41.505 8.525 41 6 C41.433125 6.639375 41.86625 7.27875 42.3125 7.9375 C46.44651583 11.1101168 50.91601822 10.82469028 56 11 C56 11.33 56 11.66 56 12 C51.545 12.495 51.545 12.495 47 13 C47 16.27275026 47.29925156 18.846632 48 22 C45 18.375 45 18.375 45 15 C42.03 15 39.06 15 36 15 C36 14.34 36 13.68 36 13 C21.81 13 7.62 13 -7 13 C-6.08160162 8.40800812 -5.65998007 7.10508137 -2.9375 3.6875 C-2.38964844 2.99011719 -1.84179688 2.29273438 -1.27734375 1.57421875 C-0.64505859 0.79498047 -0.64505859 0.79498047 0 0 Z " fill="#B2854B" transform="translate(127,159)"/>
<path d="M0 0 C0.33 0.99 0.66 1.98 1 3 C12.55 3.33 24.1 3.66 36 4 C36 4.33 36 4.66 36 5 C35.03698975 4.98316162 34.07397949 4.96632324 33.08178711 4.94897461 C29.48235206 4.8980455 25.88503304 4.90679072 22.28540039 4.93286133 C20.73261445 4.93592912 19.17970851 4.92316578 17.62719727 4.89379883 C8.50434884 4.48943968 8.50434884 4.48943968 0.41455078 7.96923828 C-2.13634065 11.18637327 -3.70408624 14.11225873 -5 18 C-6.32 17.67 -7.64 17.34 -9 17 C-9.75 15.25 -9.75 15.25 -10 13 C-8.71889593 11.6164076 -7.36794747 10.29779632 -6 9 C-3.90614314 6.06044913 -1.94747863 3.03806666 0 0 Z " fill="#1A3C29" transform="translate(180,152)"/>
<path d="M0 0 C1.17948463 0.00212242 1.17948463 0.00212242 2.38279724 0.00428772 C4.8581039 0.00981953 7.33331512 0.0223585 9.80859375 0.03515625 C11.50195181 0.04018009 13.1953113 0.04474144 14.88867188 0.04882812 C19.00784845 0.05976647 23.126955 0.07698263 27.24609375 0.09765625 C26.30848717 5.70435419 23.78059924 9.2376496 20.18359375 13.59765625 C18.11086757 16.1048364 18.11086757 16.1048364 16.62109375 19.34765625 C15.24609375 22.09765625 15.24609375 22.09765625 13.24609375 23.09765625 C13.57609375 21.44765625 13.90609375 19.79765625 14.24609375 18.09765625 C14.90609375 18.09765625 15.56609375 18.09765625 16.24609375 18.09765625 C16.18421875 17.21078125 16.12234375 16.32390625 16.05859375 15.41015625 C16.27146648 11.64940475 16.89637685 10.01454619 19.24609375 7.09765625 C21.93359375 5.78515625 21.93359375 5.78515625 24.24609375 5.09765625 C24.24609375 3.77765625 24.24609375 2.45765625 24.24609375 1.09765625 C23.6133252 1.12794922 22.98055664 1.15824219 22.32861328 1.18945312 C8.9576299 1.81822066 -4.36794228 2.24976948 -17.75390625 2.09765625 C-17.75390625 1.76765625 -17.75390625 1.43765625 -17.75390625 1.09765625 C-11.79139853 0.35266501 -6.00462949 -0.04182378 0 0 Z " fill="#B49145" transform="translate(191.75390625,169.90234375)"/>
<path d="M0 0 C4.82782855 6.43710474 6.97095028 9.88380112 9 18 C1.08 18 -6.84 18 -15 18 C-15 17.67 -15 17.34 -15 17 C-9.72 16.67 -4.44 16.34 1 16 C1.33 14.35 1.66 12.7 2 11 C1.34 10.67 0.68 10.34 0 10 C0 6.7 0 3.4 0 0 Z " fill="#F1BA5B" transform="translate(161,153)"/>
<path d="M0 0 C0.33 0.99 0.66 1.98 1 3 C0.01 3.66 -0.98 4.32 -2 5 C-3.2188121 8.55672179 -3.2188121 8.55672179 -4 12 C-4.99 12 -5.98 12 -7 12 C-8.15327757 16.94261817 -8.53972977 21.95661339 -9 27 C-9.33 26.34 -9.66 25.68 -10 25 C-10.99 25 -11.98 25 -13 25 C-13.33 26.65 -13.66 28.3 -14 30 C-14.33 29.34 -14.66 28.68 -15 28 C-15.99 27.67 -16.98 27.34 -18 27 C-10.26082402 14.22939944 -10.26082402 14.22939944 -7.1875 10.0625 C-4.91497874 7.04927984 -4.91497874 7.04927984 -3.3125 3.625 C-2 1 -2 1 0 0 Z " fill="#D88141" transform="translate(149,126)"/>
<path d="M0 0 C1.32 0.33 2.64 0.66 4 1 C2.74902879 4.46422796 1.64261399 7.39818932 -1 10 C-3.57797437 10.35711867 -5.72314113 10.46813593 -8.29296875 10.390625 C-9.35201164 10.38213531 -9.35201164 10.38213531 -10.43244934 10.37347412 C-12.68482626 10.35110411 -14.93560503 10.30091199 -17.1875 10.25 C-18.71547179 10.22993556 -20.24346856 10.21168468 -21.77148438 10.1953125 C-25.51493756 10.15123802 -29.25719795 10.08221074 -33 10 C-33 9.34 -33 8.68 -33 8 C-22.77 8 -12.54 8 -2 8 C-1.34 5.36 -0.68 2.72 0 0 Z " fill="#12203D" transform="translate(162,175)"/>
<path d="M0 0 C2 2 2 2 2 5 C1.05988318 6.70116376 0.05104383 8.36504293 -1 10 C-1.495 10.928125 -1.99 11.85625 -2.5 12.8125 C-2.995 13.534375 -3.49 14.25625 -4 15 C-4.99 15 -5.98 15 -7 15 C-7.99 16.98 -8.98 18.96 -10 21 C-10.99 21 -11.98 21 -13 21 C-13 22.65 -13 24.3 -13 26 C-13.99 26 -14.98 26 -16 26 C-15.01 22.535 -15.01 22.535 -14 19 C-13.34 19 -12.68 19 -12 19 C-11.8453125 18.1028125 -11.8453125 18.1028125 -11.6875 17.1875 C-10.90175967 14.68741714 -10.03081147 13.62464918 -8 12 C-7.34 12 -6.68 12 -6 12 C-5.34 10.02 -4.68 8.04 -4 6 C-3.34 6 -2.68 6 -2 6 C-1.34 4.02 -0.68 2.04 0 0 Z " fill="#F5B92F" transform="translate(179,193)"/>
<path d="M0 0 C3.99500618 1.3697164 6.80009492 3.25722422 10 6 C9.38511719 5.88140625 8.77023437 5.7628125 8.13671875 5.640625 C3.23806279 4.67735876 3.23806279 4.67735876 -1.125 6.5 C-2.33136178 9.94674795 -1.69675737 12.45287155 -1 16 C-1 17.32 -1 18.64 -1 20 C-3.4375 19.1875 -3.4375 19.1875 -6 18 C-7 15 -7 15 -6.328125 13.203125 C-5.97234375 12.55859375 -5.6165625 11.9140625 -5.25 11.25 C-3.28475894 7.56517302 -1.60597565 3.85434155 0 0 Z " fill="#B5B9BD" transform="translate(255,182)"/>
<path d="M0 0 C-1.93950489 4.19902808 -4.62717744 7.74106738 -7.34375 11.46484375 C-8.94781549 13.92012323 -10.01472757 16.24616356 -11 19 C-11.66 18.67 -12.32 18.34 -13 18 C-12.125 13.25 -12.125 13.25 -11 11 C-10.34 11 -9.68 11 -9 11 C-8.67 8.69 -8.34 6.38 -8 4 C-7.01 4 -6.02 4 -5 4 C-5 3.01 -5 2.02 -5 1 C-3 0 -3 0 0 0 Z " fill="#C1773D" transform="translate(172,134)"/>
<path d="M0 0 C0 5.08887285 -2.68218983 9.54267275 -5 14 C-6.32 13.67 -7.64 13.34 -9 13 C-9.8125 11.3125 -9.8125 11.3125 -10 9 C-7.6875 6.25 -7.6875 6.25 -5 4 C-4.34 4 -3.68 4 -3 4 C-2.67 3.01 -2.34 2.02 -2 1 C-1.34 0.67 -0.68 0.34 0 0 Z " fill="#46525A" transform="translate(180,156)"/>
<path d="M0 0 C0.433125 0.639375 0.86625 1.27875 1.3125 1.9375 C5.44651583 5.1101168 9.91601822 4.82469028 15 5 C15 5.33 15 5.66 15 6 C10.545 6.495 10.545 6.495 6 7 C6 10.27275026 6.29925156 12.846632 7 16 C4 12.375 4 12.375 4 9 C1.03 9 -1.94 9 -5 9 C-3 6 -3 6 -0.875 5.3125 C-0.25625 5.209375 0.3625 5.10625 1 5 C0.67 3.35 0.34 1.7 0 0 Z " fill="#927952" transform="translate(168,165)"/>
<path d="M0 0 C0.66 0.66 1.32 1.32 2 2 C1.85421465 5.93620456 1.54997441 8.28503327 -0.875 11.4375 C-3 13 -3 13 -6 13 C-5.58221009 7.2902045 -3.42453429 4.39042858 0 0 Z " fill="#25643E" transform="translate(187,142)"/>
<path d="M0 0 C0.33 0 0.66 0 1 0 C0.51098901 6.35714286 0.51098901 6.35714286 -1.9375 9.4375 C-4 11 -4 11 -6 11 C-7.98 7.535 -7.98 7.535 -10 4 C-8.68 4.33 -7.36 4.66 -6 5 C-6 4.34 -6 3.68 -6 3 C-5.38125 2.87625 -4.7625 2.7525 -4.125 2.625 C-1.80879168 2.12802644 -1.80879168 2.12802644 0 0 Z " fill="#C99949" transform="translate(185,177)"/>
<path d="M0 0 C-1.53201526 3.44703434 -3.65269416 6.06586771 -6 9 C-6.70885894 10.31138904 -7.39456452 11.63777017 -8 13 C-9.13643966 9.59068103 -8.86747764 8.99664544 -7.5625 5.8125 C-7.27503906 5.09707031 -6.98757812 4.38164062 -6.69140625 3.64453125 C-6.46324219 3.10183594 -6.23507813 2.55914062 -6 2 C-6.99 2.33 -7.98 2.66 -9 3 C-9 2.01 -9 1.02 -9 0 C-5.93109813 -1.53445094 -3.29905734 -0.54984289 0 0 Z " fill="#3C474B" transform="translate(172,174)"/>
<path d="M0 0 C0.33 0.99 0.66 1.98 1 3 C0.01 4.485 0.01 4.485 -1 6 C-1.66 6 -2.32 6 -3 6 C-3.3403125 7.36125 -3.3403125 7.36125 -3.6875 8.75 C-5.19557814 12.48428873 -6.82577834 13.63968133 -10 16 C-10.33 16.99 -10.66 17.98 -11 19 C-11.66 19 -12.32 19 -13 19 C-11.61292202 14.9543559 -9.68538532 12.29918768 -7 9 C-5.67973376 6.91056964 -4.40470967 4.80033612 -3.1484375 2.671875 C-2 1 -2 1 0 0 Z " fill="#AE9143" transform="translate(178,193)"/>
<path d="M0 0 C2.97 0 5.94 0 9 0 C7 2 7 2 4 3 C4.99 3.5259375 4.99 3.5259375 6 4.0625 C8 6 8 6 8.25 9.6875 C8.1675 10.780625 8.085 11.87375 8 13 C7.67 12.01 7.34 11.02 7 10 C6.35546875 9.86722656 5.7109375 9.73445312 5.046875 9.59765625 C4.37140625 9.40042969 3.6959375 9.20320312 3 9 C1.953125 6.93359375 1.953125 6.93359375 1.25 4.4375 C1.00765625 3.61121094 0.7653125 2.78492188 0.515625 1.93359375 C0.34546875 1.29550781 0.1753125 0.65742188 0 0 Z " fill="#D5A34F" transform="translate(172,172)"/>
<path d="M0 0 C0.33 2.64 0.66 5.28 1 8 C-1.49064888 8.68707555 -3.37886292 9 -6 9 C-5.34 8.01 -4.68 7.02 -4 6 C-4.33 5.34 -4.66 4.68 -5 4 C-4.67 3.01 -4.34 2.02 -4 1 C-4.66 0.67 -5.32 0.34 -6 0 C-3.50907189 -1.24546405 -2.58919267 -0.7767578 0 0 Z " fill="#D1D6D8" transform="translate(367,191)"/>
<path d="M0 0 C0.33 0.99 0.66 1.98 1 3 C0.34 3.66 -0.32 4.32 -1 5 C-2.03485877 7.31808364 -3.0355414 9.65175298 -4 12 C-4.33 12.66 -4.66 13.32 -5 14 C-5.66 14 -6.32 14 -7 14 C-7.36923077 9.44615385 -7.36923077 9.44615385 -5.5 7.1875 C-4.7575 6.5996875 -4.7575 6.5996875 -4 6 C-4.33 5.01 -4.66 4.02 -5 3 C-4.67 2.34 -4.34 1.68 -4 1 C-2.68 1.33 -1.36 1.66 0 2 C0 1.34 0 0.68 0 0 Z " fill="#F2C042" transform="translate(207,185)"/>
<path d="M0 0 C1 3 1 3 -0.4375 6.1875 C-1.2109375 7.5796875 -1.2109375 7.5796875 -2 9 C-2.99 9 -3.98 9 -5 9 C-5 10.65 -5 12.3 -5 14 C-5.99 14 -6.98 14 -8 14 C-7.34 11.69 -6.68 9.38 -6 7 C-5.34 7 -4.68 7 -4 7 C-3.8453125 6.1028125 -3.8453125 6.1028125 -3.6875 5.1875 C-2.91123545 2.71756736 -1.92911079 1.67748765 0 0 Z " fill="#F0BD49" transform="translate(171,205)"/>
<path d="M0 0 C0.33 0.66 0.66 1.32 1 2 C0.34 2 -0.32 2 -1 2 C-0.92652344 3.09054688 -0.92652344 3.09054688 -0.8515625 4.203125 C-1.01973127 7.3717787 -1.79285981 9.02469493 -3.375 11.75 C-3.81585938 12.52859375 -4.25671875 13.3071875 -4.7109375 14.109375 C-6 16 -6 16 -8 17 C-7.67 15.35 -7.34 13.7 -7 12 C-6.34 12 -5.68 12 -5 12 C-5.061875 11.113125 -5.12375 10.22625 -5.1875 9.3125 C-4.97858694 5.62170254 -4.18129404 3.93635736 -2 1 C-1.34 0.67 -0.68 0.34 0 0 Z " fill="#C4A140" transform="translate(213,176)"/>
<path d="M0 0 C2.31 0 4.62 0 7 0 C6.4685789 4.51707932 4.70984317 7.38687577 2 11 C1.01 11.495 1.01 11.495 0 12 C0 10.68 0 9.36 0 8 C0.66 8 1.32 8 2 8 C2 7.01 2 6.02 2 5 C2.66 5 3.32 5 4 5 C4 3.68 4 2.36 4 1 C2.68 0.67 1.36 0.34 0 0 Z " fill="#A3863D" transform="translate(212,170)"/>
<path d="M0 0 C2 2 2 2 2.125 5.625 C2.08375 6.73875 2.0425 7.8525 2 9 C-0.4375 8.1875 -0.4375 8.1875 -3 7 C-3.33 6.01 -3.66 5.02 -4 4 C-2.68 2.68 -1.36 1.36 0 0 Z " fill="#C3C6CA" transform="translate(252,193)"/>
<path d="M0 0 C0.66 0.33 1.32 0.66 2 1 C-2.455 8.425 -2.455 8.425 -7 16 C-8.04449911 12.86650268 -7.93423645 12.01031744 -7 9 C-6.01 9 -5.02 9 -4 9 C-3.67 7.35 -3.34 5.7 -3 4 C-2.34 4 -1.68 4 -1 4 C-0.67 2.68 -0.34 1.36 0 0 Z " fill="#9E7F39" transform="translate(199,199)"/>
<path d="M0 0 C3.96 0 7.92 0 12 0 C12 4.62 12 9.24 12 14 C11.67 14 11.34 14 11 14 C10.34 10.04 9.68 6.08 9 2 C6.03 1.67 3.06 1.34 0 1 C0 0.67 0 0.34 0 0 Z " fill="#4D9D5D" transform="translate(204,137)"/>
<path d="M0 0 C7.59 0 15.18 0 23 0 C23 0.33 23 0.66 23 1 C12.605 1.495 12.605 1.495 2 2 C1.67 2.66 1.34 3.32 1 4 C0.01 4 -0.98 4 -2 4 C-1.34 2.68 -0.68 1.36 0 0 Z " fill="#E8985A" transform="translate(152,122)"/>
<path d="M0 0 C5.75 0.875 5.75 0.875 8 2 C8 2.99 8 3.98 8 5 C8.66 5.33 9.32 5.66 10 6 C8.53984709 5.71758359 7.08190207 5.42373386 5.625 5.125 C4.81289063 4.96257812 4.00078125 4.80015625 3.1640625 4.6328125 C1 4 1 4 -1 2 C-0.67 1.34 -0.34 0.68 0 0 Z " fill="#D8DCDC" transform="translate(257,201)"/>
<path d="M0 0 C1.0161846 1.32103998 2.01133494 2.65824027 3 4 C3.7425 4.99 4.485 5.98 5.25 7 C7 10 7 10 6.75 12.375 C6.5025 12.91125 6.255 13.4475 6 14 C2.06153846 10.67692308 2.06153846 10.67692308 1.75 7.25 C1.87375 6.13625 1.87375 6.13625 2 5 C1.34 5 0.68 5 0 5 C0 3.35 0 1.7 0 0 Z " fill="#C8A15B" transform="translate(161,153)"/>
<path d="M0 0 C0.66 0.99 1.32 1.98 2 3 C3.92441415 3.50531866 3.92441415 3.50531866 6.1328125 3.51171875 C6.93847656 3.54716797 7.74414062 3.58261719 8.57421875 3.61914062 C9.41597656 3.64169922 10.25773438 3.66425781 11.125 3.6875 C12.39923828 3.73874023 12.39923828 3.73874023 13.69921875 3.79101562 C15.79901105 3.87359173 17.89948564 3.93846978 20 4 C20 4.33 20 4.66 20 5 C13.07 5 6.14 5 -1 5 C-1 2 -1 2 0 0 Z " fill="#B7B8BD" transform="translate(515,203)"/>
<path d="M0 0 C0.33 0.99 0.66 1.98 1 3 C0.01 3.66 -0.98 4.32 -2 5 C-2.28875 6.155 -2.5775 7.31 -2.875 8.5 C-4 12 -4 12 -6.625 13.4375 C-7.40875 13.623125 -8.1925 13.80875 -9 14 C-7.55362598 11.07377109 -6.05576668 8.18213061 -4.5 5.3125 C-4.0771875 4.52488281 -3.654375 3.73726562 -3.21875 2.92578125 C-2 1 -2 1 0 0 Z " fill="#A26B40" transform="translate(149,126)"/>
<path d="M0 0 C0.99 0 1.98 0 3 0 C2.29186565 4.95694043 0.54556225 8.45443775 -3 12 C-3 10.02 -3 8.04 -3 6 C-2.34 6 -1.68 6 -1 6 C-0.67 4.02 -0.34 2.04 0 0 Z " fill="#CA7B44" transform="translate(175,122)"/>
<path d="M0 0 C-0.66 1.32 -1.32 2.64 -2 4 C-2.66 4 -3.32 4 -4 4 C-3.67 5.32 -3.34 6.64 -3 8 C-4.98 8.66 -6.96 9.32 -9 10 C-7.6834994 5.81113445 -4.97532335 0 0 0 Z " fill="#D5A83D" transform="translate(186,184)"/>
<path d="M0 0 C0.33 1.32 0.66 2.64 1 4 C0.34 4 -0.32 4 -1 4 C-1.4021875 5.7015625 -1.4021875 5.7015625 -1.8125 7.4375 C-2.204375 8.613125 -2.59625 9.78875 -3 11 C-3.99 11.33 -4.98 11.66 -6 12 C-5.54300722 6.97307937 -3.00758252 3.85103739 0 0 Z " fill="#AE7643" transform="translate(127,159)"/>
<path d="M0 0 C0.33 0.99 0.66 1.98 1 3 C1.99 3.33 2.98 3.66 4 4 C3.34 4 2.68 4 2 4 C1.87625 4.61875 1.7525 5.2375 1.625 5.875 C1 8 1 8 -1 10 C-0.67 8.35 -0.34 6.7 0 5 C-0.99 5.99 -1.98 6.98 -3 8 C-3.66 7.67 -4.32 7.34 -5 7 C-3.35 4.69 -1.7 2.38 0 0 Z " fill="#2A3E44" transform="translate(180,152)"/>
<path d="M0 0 C1.47118907 3.82509158 0.45442741 6.28312995 -1 10 C-1.33 10.66 -1.66 11.32 -2 12 C-3.32 12 -4.64 12 -6 12 C-4.90841447 9.73286083 -3.74896492 7.58830248 -2.4375 5.4375 C-0.88141236 2.99345222 -0.88141236 2.99345222 0 0 Z " fill="#C2C4C6" transform="translate(534,174)"/>
<path d="M0 0 C1.5625 1.1875 1.5625 1.1875 3 3 C2.75546876 6.34192692 2.39456443 7.60543557 0 10 C-0.33 9.01 -0.66 8.02 -1 7 C-1.66 7 -2.32 7 -3 7 C-1.125 2.25 -1.125 2.25 0 0 Z " fill="#F6BD3B" transform="translate(197,193)"/>
<path d="M0 0 C1.32 0.33 2.64 0.66 4 1 C2.7508258 4.45925163 1.32472205 7.14693203 -1 10 C-1.99 9.67 -2.98 9.34 -4 9 C-3.525625 8.62875 -3.05125 8.2575 -2.5625 7.875 C-0.47794198 5.37353038 -0.35378509 3.18406582 0 0 Z " fill="#1D2F3B" transform="translate(162,175)"/>
<path d="M0 0 C1.32 0.66 2.64 1.32 4 2 C3.60196439 4.88575819 3.20990931 5.82189513 0.9375 7.75 C0.298125 8.1625 -0.34125 8.575 -1 9 C-1.66 8.67 -2.32 8.34 -3 8 C-2.01 5.36 -1.02 2.72 0 0 Z " fill="#CFD0D8" transform="translate(464,173)"/>
<path d="M0 0 C-1.19899698 3.0831351 -2.47700477 6.06279492 -4 9 C-4.66 9 -5.32 9 -6 9 C-5.38983051 3.50847458 -5.38983051 3.50847458 -3.5625 1.125 C-2 0 -2 0 0 0 Z " fill="#416656" transform="translate(187,146)"/>
<path d="M0 0 C0.99 0.33 1.98 0.66 3 1 C2.67 2.98 2.34 4.96 2 7 C0.68 6.67 -0.64 6.34 -2 6 C-2.33 4.68 -2.66 3.36 -3 2 C-2.01 1.34 -1.02 0.68 0 0 Z " fill="#626762" transform="translate(173,163)"/>
<path d="M0 0 C3.50015029 2.33343353 4.40382422 4.16917814 6 8 C5.67 8.66 5.34 9.32 5 10 C3.68 9.34 2.36 8.68 1 8 C1.020625 7.236875 1.04125 6.47375 1.0625 5.6875 C1.12942841 2.89814214 1.12942841 2.89814214 0 0 Z " fill="#ADAEB3" transform="translate(506,197)"/>
<path d="M0 0 C0.99 0.495 0.99 0.495 2 1 C2 1.66 2 2.32 2 3 C3.32 2.67 4.64 2.34 6 2 C6 4.31 6 6.62 6 9 C5.67 8.01 5.34 7.02 5 6 C2.98491642 5.26676204 2.98491642 5.26676204 1 5 C0.67 3.35 0.34 1.7 0 0 Z " fill="#D9A85D" transform="translate(174,176)"/>
<path d="M0 0 C0.33 0.66 0.66 1.32 1 2 C0.34 2 -0.32 2 -1 2 C-1.66 3.32 -2.32 4.64 -3 6 C-3.99 6 -4.98 6 -6 6 C-5.8125 4.125 -5.8125 4.125 -5 2 C-2.4375 0.75 -2.4375 0.75 0 0 Z " fill="#B4B6BA" transform="translate(505,153)"/>
<path d="M0 0 C0.66 0 1.32 0 2 0 C0.125 5.75 0.125 5.75 -1 8 C-1.66 8 -2.32 8 -3 8 C-2.25 2.25 -2.25 2.25 0 0 Z " fill="#48775A" transform="translate(191,136)"/>
<path d="M0 0 C0.99 0 1.98 0 3 0 C2.67 0.99 2.34 1.98 2 3 C1.34 3 0.68 3 0 3 C-0.66 4.98 -1.32 6.96 -2 9 C-3 6 -3 6 -1.5625 2.8125 C-1.046875 1.884375 -0.53125 0.95625 0 0 Z " fill="#3D8B4E" transform="translate(192,138)"/>
<path d="M0 0 C0.33 0.66 0.66 1.32 1 2 C-0.2739589 4.03833424 -1.61061923 6.03852126 -3 8 C-3.66 8 -4.32 8 -5 8 C-5 7.01 -5 6.02 -5 5 C-4.34 5 -3.68 5 -3 5 C-2.5359375 4.0409375 -2.5359375 4.0409375 -2.0625 3.0625 C-1 1 -1 1 0 0 Z " fill="#243C66" transform="translate(152,196)"/>
<path d="M0 0 C0.99 0.33 1.98 0.66 3 1 C1.625 3.5 1.625 3.5 0 6 C-0.66 6 -1.32 6 -2 6 C-2 4.35 -2 2.7 -2 1 C-1.34 0.67 -0.68 0.34 0 0 Z " fill="#C8A546" transform="translate(202,193)"/>
<path d="M0 0 C0.33 0.66 0.66 1.32 1 2 C-0.59617578 5.83082186 -1.49984971 7.66656647 -5 10 C-3.84414715 6.08788267 -2.64465038 3.1254959 0 0 Z " fill="#364D61" transform="translate(164,180)"/>
<path d="M0 0 C2.64 0 5.28 0 8 0 C8 0.99 8 1.98 8 3 C5.125 3.1875 5.125 3.1875 2 3 C1.34 2.01 0.68 1.02 0 0 Z " fill="#F1B937" transform="translate(208,172)"/>
<path d="M0 0 C0.66 0.33 1.32 0.66 2 1 C1.38125 1.5775 0.7625 2.155 0.125 2.75 C-1.81347053 4.80249821 -2.90014249 6.43366582 -4 9 C-4.33 7.02 -4.66 5.04 -5 3 C-2.625 1.4375 -2.625 1.4375 0 0 Z " fill="#AFB6BB" transform="translate(494,168)"/>
<path d="M0 0 C0.99 0.33 1.98 0.66 3 1 C2.01 2.98 1.02 4.96 0 7 C-0.66 6.67 -1.32 6.34 -2 6 C-1.125 1.125 -1.125 1.125 0 0 Z " fill="#B27A3F" transform="translate(161,146)"/>
</svg>
